<svg width="33" height="95" viewBox="0 0 33 95" fill="none" xmlns="http://www.w3.org/2000/svg">
<mask id="mask0_2204_268" style="mask-type:luminance" maskUnits="userSpaceOnUse" x="0" y="5" width="33" height="90">
<path d="M0.822754 5.90002H32.1311V94.4524H0.822754V5.90002Z" fill="white"/>
</mask>
<g mask="url(#mask0_2204_268)">
<path d="M31.4805 28.7268V29.9359C31.4817 29.9788 31.4907 30.0194 31.5076 30.0584C31.5245 30.0973 31.5482 30.1317 31.5787 30.1611C31.6092 30.191 31.6442 30.2135 31.6836 30.2293C31.7231 30.2451 31.7643 30.2525 31.8067 30.2519C31.8687 30.2525 31.9263 30.2705 31.9782 30.3049C31.9962 30.3168 32.0132 30.3303 32.0278 30.3461C32.091 30.4082 32.1226 30.4844 32.1221 30.5735V61.9682C32.1221 62.0111 32.1142 62.0517 32.0978 62.0912C32.0814 62.1307 32.0583 62.1651 32.0284 62.1956C31.9985 62.2255 31.9635 62.2486 31.9246 62.265C31.8851 62.2813 31.8445 62.2898 31.8016 62.2898C31.7593 62.2898 31.7181 62.2977 31.6791 62.314C31.6396 62.3304 31.6052 62.3535 31.5748 62.3834C31.5448 62.4134 31.5217 62.4483 31.5054 62.4873C31.489 62.5268 31.4811 62.5674 31.4805 62.6103V63.8138C31.4805 63.8567 31.489 63.8973 31.5054 63.9368C31.5211 63.9763 31.5448 64.0107 31.5748 64.0412C31.6047 64.0711 31.6396 64.0942 31.6786 64.1106C31.7181 64.1269 31.7593 64.1354 31.8016 64.1354C31.8439 64.1354 31.8851 64.1433 31.924 64.1597C31.9635 64.176 31.9979 64.1992 32.0284 64.2291C32.0583 64.259 32.0814 64.294 32.0978 64.3329C32.1142 64.3724 32.1221 64.4136 32.1221 64.4559V70.7088C32.1221 70.7516 32.1142 70.7923 32.0978 70.8318C32.0814 70.8713 32.0583 70.9057 32.0284 70.9356C31.9985 70.966 31.9635 70.9892 31.9246 71.0055C31.8851 71.0219 31.8445 71.0298 31.8016 71.0298C31.7593 71.0298 31.7181 71.0383 31.6786 71.0541C31.6396 71.0704 31.6047 71.0941 31.5748 71.124C31.5448 71.1539 31.5217 71.1889 31.5054 71.2284C31.489 71.2679 31.4805 71.3085 31.4805 71.3514V72.5549C31.4805 72.5973 31.489 72.6384 31.5054 72.6779C31.5217 72.7169 31.5448 72.7519 31.5748 72.7818C31.6052 72.8117 31.6396 72.8348 31.6791 72.8512C31.7181 72.8675 31.7593 72.8754 31.8016 72.8754C31.8445 72.8754 31.8851 72.8839 31.924 72.9002C31.9635 72.9166 31.9979 72.9397 32.0284 72.9702C32.0583 73.0001 32.0814 73.0345 32.0978 73.074C32.1142 73.1135 32.1221 73.1542 32.1221 73.197V79.4499C32.1221 79.4928 32.1142 79.5334 32.0978 79.5729C32.082 79.6124 32.0583 79.6468 32.0284 79.6773C31.9985 79.7072 31.9635 79.7303 31.9246 79.7467C31.8851 79.7631 31.8445 79.7715 31.8016 79.7715C31.7593 79.7715 31.7181 79.7794 31.6791 79.7958C31.6396 79.8121 31.6052 79.8353 31.5748 79.8652C31.5448 79.8951 31.5217 79.9301 31.5054 79.969C31.489 80.0085 31.4811 80.0491 31.4805 80.092V81.2961C31.4805 81.339 31.489 81.3801 31.5054 81.4191C31.5211 81.4586 31.5448 81.4936 31.5748 81.5235C31.6047 81.5539 31.6396 81.5771 31.6786 81.5934C31.7181 81.6092 31.7593 81.6177 31.8016 81.6177C31.8439 81.6177 31.8851 81.6256 31.924 81.642C31.9635 81.6583 31.9979 81.6814 32.0284 81.7119C32.0583 81.7418 32.0814 81.7762 32.0978 81.8157C32.1142 81.8547 32.1221 81.8959 32.1221 81.9382V88.1273C32.1221 88.3344 32.1119 88.5409 32.0922 88.7468C32.0718 88.9533 32.0414 89.1576 32.0007 89.3607C31.9607 89.5638 31.9105 89.7641 31.8507 89.9627C31.7903 90.1608 31.7209 90.3555 31.6419 90.5467C31.5623 90.738 31.4743 90.9248 31.3767 91.1076C31.2791 91.2904 31.173 91.4676 31.0585 91.6397C30.9434 91.8117 30.8204 91.9782 30.6889 92.1379C30.558 92.2981 30.4192 92.4516 30.2731 92.5977C30.1269 92.7444 29.974 92.8832 29.8138 93.0147C29.6541 93.1456 29.4882 93.2692 29.3161 93.3843C29.144 93.4988 28.9669 93.6055 28.7846 93.7031C28.6024 93.8007 28.4156 93.8893 28.2243 93.9683C28.0336 94.0472 27.8389 94.1172 27.6409 94.177C27.4434 94.2374 27.2431 94.2876 27.04 94.3277C26.8374 94.3683 26.6326 94.3988 26.4272 94.4191C26.2213 94.4394 26.0148 94.4496 25.8083 94.4496H7.14163C6.93456 94.4496 6.72861 94.4394 6.52267 94.4191C6.31672 94.3988 6.11247 94.3683 5.90991 94.3277C5.70678 94.2876 5.50648 94.2374 5.30899 94.177C5.11095 94.1172 4.91629 94.0472 4.72557 93.9683C4.5343 93.8887 4.34754 93.8007 4.16529 93.7031C3.98304 93.6055 3.80587 93.4988 3.63378 93.3837C3.46169 93.2692 3.2958 93.1456 3.13612 93.0141C2.97644 92.8832 2.82353 92.7444 2.6774 92.5977C2.5307 92.4516 2.39246 92.2981 2.26099 92.1379C2.13009 91.9782 2.00708 91.8117 1.89198 91.6397C1.77688 91.4676 1.6708 91.2904 1.57375 91.1076C1.47614 90.9253 1.38755 90.738 1.30856 90.5467C1.22957 90.3555 1.16017 90.1608 1.09979 89.9627C1.03998 89.7647 0.989767 89.5638 0.949142 89.3607C0.909081 89.1581 0.878612 88.9533 0.8583 88.7474C0.837987 88.5414 0.828396 88.3349 0.828396 88.1279V81.9348C0.828396 81.8925 0.836295 81.8513 0.852658 81.8124C0.869021 81.7729 0.892154 81.7384 0.922059 81.708C0.951963 81.6781 0.986946 81.6549 1.02588 81.6386C1.06537 81.6222 1.106 81.6143 1.14888 81.6143C1.1912 81.6143 1.23239 81.6058 1.27132 81.5895C1.31082 81.5731 1.34524 81.55 1.3757 81.5201C1.40561 81.4896 1.42874 81.4552 1.44511 81.4157C1.46147 81.3762 1.46937 81.3356 1.46993 81.2927V80.0886C1.46937 80.0457 1.46147 80.0051 1.44511 79.9656C1.42874 79.9261 1.40561 79.8917 1.3757 79.8618C1.34524 79.8313 1.31082 79.8082 1.27132 79.7924C1.23239 79.776 1.1912 79.7681 1.14888 79.7681C1.106 79.7676 1.06537 79.7597 1.02588 79.7433C0.986946 79.7269 0.952528 79.7038 0.922059 79.6733C0.892154 79.6434 0.869021 79.6085 0.852658 79.5695C0.836295 79.53 0.828396 79.4888 0.828396 79.4465V73.1936C0.827831 73.1508 0.836295 73.1101 0.852658 73.0706C0.868456 73.0312 0.89159 72.9962 0.922059 72.9663C0.951963 72.9364 0.986382 72.9127 1.02588 72.8963C1.06537 72.8805 1.106 72.872 1.14888 72.872C1.1912 72.872 1.23182 72.8636 1.27132 72.8478C1.31025 72.8314 1.34524 72.8083 1.37514 72.7778C1.40505 72.7479 1.42874 72.7135 1.44511 72.674C1.46147 72.6351 1.46937 72.5939 1.46993 72.5516V71.348C1.46993 71.3052 1.46147 71.264 1.44511 71.225C1.42874 71.1855 1.40561 71.1506 1.3757 71.1206C1.3458 71.0907 1.31082 71.067 1.27132 71.0507C1.23239 71.0349 1.1912 71.0264 1.14888 71.0264C1.106 71.0264 1.06537 71.018 1.02644 71.0016C0.986946 70.9852 0.952528 70.9621 0.922623 70.9322C0.892154 70.9023 0.869021 70.8673 0.852658 70.8284C0.836295 70.7889 0.828396 70.7483 0.828396 70.7054V64.4525C0.828396 64.4096 0.836295 64.369 0.852658 64.3295C0.869021 64.2906 0.892154 64.2556 0.922059 64.2257C0.951963 64.1958 0.986946 64.1726 1.02588 64.1563C1.06537 64.1399 1.106 64.132 1.14888 64.132C1.1912 64.1315 1.23239 64.1236 1.27132 64.1072C1.31082 64.0908 1.34524 64.0677 1.3757 64.0372C1.40561 64.0073 1.42874 63.9729 1.44511 63.9334C1.46147 63.8939 1.46937 63.8533 1.46993 63.8104V62.6075C1.46937 62.5646 1.46147 62.5239 1.44511 62.4844C1.42874 62.445 1.40561 62.4105 1.3757 62.3801C1.34524 62.3502 1.31082 62.327 1.27132 62.3107C1.23239 62.2949 1.1912 62.2864 1.14888 62.2864C1.106 62.2864 1.06537 62.2779 1.02588 62.2616C0.986946 62.2452 0.952528 62.2221 0.922059 62.1922C0.892154 62.1623 0.869021 62.1273 0.852658 62.0878C0.836295 62.0489 0.828396 62.0077 0.828396 61.9654V30.5707C0.828396 30.5284 0.836295 30.4877 0.852658 30.4483C0.869021 30.4093 0.892154 30.3743 0.922059 30.3444C0.952528 30.3145 0.986946 30.2914 1.02644 30.275C1.06537 30.2587 1.106 30.2502 1.14888 30.2502C1.1912 30.2502 1.23239 30.2423 1.27132 30.2259C1.31082 30.2096 1.34524 30.1859 1.3757 30.156C1.40561 30.1261 1.42874 30.0911 1.44511 30.0516C1.46147 30.0127 1.46937 29.9715 1.46993 29.9292V28.72C1.4688 28.6777 1.45978 28.6365 1.44285 28.5976C1.42592 28.5586 1.40222 28.5242 1.37176 28.4949C1.34129 28.4655 1.3063 28.4424 1.26681 28.4272C1.22731 28.4114 1.18612 28.404 1.1438 28.4046C1.08174 28.4035 1.02419 28.386 0.972276 28.3516C0.95422 28.3397 0.937857 28.3256 0.922623 28.3104C0.859429 28.2477 0.827831 28.1721 0.828396 28.083V26.9951C0.828396 21.1457 4.03044 16.045 8.77679 13.3542C8.97935 13.2379 9.16386 13.0974 9.32918 12.9321C9.49506 12.7668 9.63612 12.5828 9.75292 12.3803C9.86972 12.1777 9.9583 11.9633 10.0187 11.7371C10.0785 11.5108 10.1084 11.2806 10.1073 11.0464V5.94122H22.8455V11.0464C22.8443 11.2806 22.8742 11.5108 22.934 11.7371C22.9944 11.9633 23.083 12.1777 23.1998 12.3803C23.3166 12.5828 23.4576 12.7668 23.6235 12.9321C23.7889 13.0974 23.9734 13.2379 24.1759 13.3542C28.9211 16.045 32.1243 21.1457 32.1243 26.9951V28.0824C32.1249 28.1366 32.1119 28.1874 32.0865 28.2353C32.0606 28.2827 32.0256 28.3211 31.9804 28.351C31.9268 28.3865 31.8682 28.404 31.8038 28.404C31.7615 28.404 31.7203 28.4125 31.6814 28.4289C31.6419 28.4452 31.6075 28.4683 31.5776 28.4983C31.5471 28.5282 31.524 28.5631 31.5076 28.6021C31.4912 28.6416 31.4833 28.6822 31.4828 28.7251L31.4805 28.7268Z" fill="#B6EAFF"/>
</g>
<mask id="mask1_2204_268" style="mask-type:luminance" maskUnits="userSpaceOnUse" x="0" y="0" width="33" height="55">
<path d="M0.822754 0.527344H32.1311V54.1444H0.822754V0.527344Z" fill="white"/>
</mask>
<g mask="url(#mask1_2204_268)">
<path d="M23.027 9.56926H9.92317C9.85546 9.56926 9.78888 9.56305 9.72287 9.54951C9.65685 9.53653 9.59309 9.51678 9.53102 9.49139C9.46896 9.46544 9.40971 9.43384 9.35386 9.3966C9.298 9.35936 9.24609 9.31648 9.19869 9.26908C9.15129 9.22112 9.10841 9.16978 9.07117 9.11335C9.03393 9.0575 9.00234 8.99825 8.97638 8.93618C8.95099 8.87412 8.93124 8.8098 8.91826 8.74378C8.90529 8.67776 8.89852 8.61119 8.89852 8.54404V1.55203C8.89852 1.48488 8.90529 1.4183 8.91826 1.35229C8.93124 1.28571 8.95099 1.22195 8.97638 1.15932C9.00234 1.09725 9.03393 1.03801 9.07117 0.982148C9.10841 0.926289 9.15073 0.874379 9.19869 0.826983C9.24609 0.779023 9.298 0.736705 9.35386 0.698901C9.40971 0.661662 9.46896 0.630064 9.53102 0.60411C9.59309 0.578719 9.65685 0.558971 9.72287 0.545993C9.78888 0.533016 9.85546 0.526245 9.92317 0.526245H23.027C23.0947 0.526245 23.1613 0.533016 23.2273 0.545993C23.2933 0.558971 23.3571 0.578719 23.4191 0.60411C23.4812 0.630064 23.5404 0.661662 23.5963 0.698901C23.6522 0.736705 23.7041 0.779023 23.7515 0.826983C23.7989 0.874379 23.8417 0.926289 23.879 0.982148C23.9162 1.03801 23.9478 1.09725 23.9738 1.15932C23.9992 1.22195 24.0189 1.28571 24.0319 1.35229C24.0449 1.4183 24.0516 1.48488 24.0516 1.55203V8.54404C24.0516 8.61119 24.0449 8.67776 24.0319 8.74378C24.0189 8.8098 23.9992 8.87412 23.9732 8.93618C23.9478 8.99825 23.9162 9.0575 23.879 9.11335C23.8417 9.16978 23.7989 9.22112 23.7515 9.26908C23.7041 9.31648 23.6522 9.35936 23.5963 9.3966C23.5404 9.43384 23.4812 9.46544 23.4191 9.49139C23.3571 9.51678 23.2927 9.53653 23.2273 9.54951C23.1613 9.56305 23.0947 9.56926 23.027 9.56926ZM32.1219 34.4944H0.828247V54.1072H32.1219V34.4944Z" fill="#169FDB"/>
</g>
<path d="M31.8016 30.2502C31.8659 30.2502 31.9246 30.2677 31.9782 30.3032H0.97229C1.02589 30.2677 1.08457 30.2502 1.1489 30.2502C1.19121 30.2502 1.2324 30.2423 1.27134 30.2259C1.31083 30.2096 1.34525 30.1859 1.37572 30.156C1.40562 30.1261 1.42876 30.0911 1.44512 30.0516C1.46148 30.0126 1.46938 29.9715 1.46995 29.9291V28.7267C1.46938 28.6844 1.46148 28.6432 1.44512 28.6037C1.42876 28.5648 1.40562 28.5298 1.37572 28.4999C1.34525 28.47 1.31083 28.4463 1.27134 28.4305C1.2324 28.4142 1.19121 28.4057 1.1489 28.4057C1.08457 28.4063 1.02589 28.3882 0.97229 28.3527H31.9782C31.9246 28.3882 31.8659 28.4063 31.8016 28.4057C31.7593 28.4057 31.7181 28.4142 31.6791 28.4305C31.6397 28.4469 31.6052 28.47 31.5753 28.4999C31.5449 28.5304 31.5217 28.5648 31.5054 28.6043C31.489 28.6432 31.4811 28.6844 31.4805 28.7267V29.9303C31.4811 29.9731 31.489 30.0138 31.5054 30.0533C31.5217 30.0922 31.5454 30.1266 31.5753 30.1565C31.6052 30.187 31.6402 30.2096 31.6791 30.2259C31.7186 30.2423 31.7593 30.2502 31.8016 30.2502ZM31.4805 63.8115V62.6074C31.4811 62.5646 31.489 62.5239 31.5054 62.4844C31.5217 62.4449 31.5449 62.4105 31.5748 62.3806C31.6052 62.3501 31.6397 62.327 31.6791 62.3112C31.7181 62.2948 31.7593 62.2864 31.8016 62.2864H1.1489C1.19121 62.2864 1.2324 62.2948 1.27134 62.3106C1.31083 62.327 1.34525 62.3501 1.37572 62.3801C1.40562 62.4105 1.42876 62.4449 1.44512 62.4844C1.46148 62.5239 1.46938 62.5646 1.46995 62.6074V63.811C1.46938 63.8533 1.46148 63.8945 1.44512 63.9334C1.42876 63.9729 1.40562 64.0079 1.37572 64.0378C1.34525 64.0677 1.31083 64.0914 1.27134 64.1077C1.2324 64.1241 1.19121 64.132 1.1489 64.132H31.8016C31.7593 64.132 31.7181 64.1241 31.6791 64.1077C31.6397 64.0914 31.6052 64.0682 31.5748 64.0383C31.5449 64.0084 31.5217 63.9735 31.5054 63.9345C31.489 63.895 31.4811 63.8538 31.4805 63.8115ZM31.4805 72.5527V71.3491C31.4805 71.3063 31.489 71.2656 31.5054 71.2261C31.5217 71.1866 31.5449 71.1517 31.5748 71.1218C31.6047 71.0919 31.6397 71.0682 31.6791 71.0518C31.7181 71.036 31.7593 71.0275 31.8016 71.0275H1.1489C1.19121 71.0275 1.2324 71.036 1.27134 71.0518C1.31083 71.0682 1.34581 71.0919 1.37572 71.1218C1.40562 71.1517 1.42876 71.1866 1.44512 71.2261C1.46148 71.2651 1.46995 71.3063 1.46995 71.3491V72.5527C1.46938 72.595 1.46148 72.6362 1.44512 72.6751C1.42876 72.7146 1.40506 72.749 1.37515 72.7789C1.34525 72.8094 1.31027 72.8325 1.27134 72.8489C1.23184 72.8647 1.19121 72.8731 1.1489 72.8731H31.8016C31.7593 72.8731 31.7181 72.8652 31.6791 72.8489C31.6397 72.8325 31.6052 72.8094 31.5748 72.7795C31.5449 72.7496 31.5217 72.7146 31.5054 72.6757C31.489 72.6362 31.4805 72.595 31.4805 72.5527ZM31.4805 81.2927V80.0886C31.4811 80.0457 31.489 80.0051 31.5054 79.9656C31.5217 79.9267 31.5449 79.8917 31.5748 79.8618C31.6052 79.8319 31.6397 79.8087 31.6791 79.7924C31.7181 79.776 31.7593 79.7681 31.8016 79.7681H1.1489C1.19121 79.7681 1.2324 79.776 1.27134 79.7924C1.31083 79.8082 1.34525 79.8313 1.37572 79.8618C1.40562 79.8917 1.42876 79.9261 1.44512 79.9656C1.46148 80.0051 1.46938 80.0457 1.46995 80.0886V81.2927C1.46938 81.3356 1.46148 81.3762 1.44512 81.4157C1.42876 81.4552 1.40562 81.4896 1.37572 81.5201C1.34525 81.55 1.31083 81.5731 1.27134 81.5895C1.2324 81.6058 1.19121 81.6143 1.1489 81.6143H31.8016C31.7593 81.6143 31.7181 81.6058 31.6786 81.59C31.6397 81.5737 31.6047 81.55 31.5748 81.5201C31.5449 81.4902 31.5212 81.4552 31.5054 81.4157C31.489 81.3768 31.4805 81.3356 31.4805 81.2927Z" fill="#7CC7ED"/>
<mask id="mask2_2204_268" style="mask-type:luminance" maskUnits="userSpaceOnUse" x="3" y="13" width="11" height="82">
<path d="M3.93335 13.7H13.1778V94.4524H3.93335V13.7Z" fill="white"/>
</mask>
<g mask="url(#mask2_2204_268)">
<mask id="mask3_2204_268" style="mask-type:luminance" maskUnits="userSpaceOnUse" x="3" y="13" width="11" height="82">
<path d="M13.1068 94.4456H10.2517C10.0446 94.4456 9.83869 94.4354 9.63275 94.4151C9.4268 94.3948 9.22255 94.3643 9.01999 94.3243C8.81686 94.2837 8.61656 94.2334 8.41908 94.1736C8.22103 94.1133 8.02637 94.0439 7.83566 93.9643C7.64438 93.8853 7.45762 93.7967 7.27537 93.6991C7.09312 93.6015 6.91595 93.4954 6.74386 93.3803C6.57233 93.2652 6.40645 93.1422 6.2462 93.0107C6.08652 92.8793 5.93362 92.7405 5.78748 92.5943C5.64134 92.4476 5.50254 92.2947 5.37107 92.1345C5.24017 91.9742 5.11717 91.8084 5.00206 91.6363C4.88752 91.4642 4.78145 91.2864 4.68383 91.1042C4.58622 90.9214 4.4982 90.7346 4.41864 90.5433C4.33965 90.3521 4.27025 90.1574 4.20987 89.9594C4.15007 89.7613 4.09985 89.5604 4.05979 89.3573C4.01916 89.1542 3.98869 88.9499 3.96838 88.744C3.94863 88.538 3.93848 88.3315 3.93848 88.1245V26.9951C3.93735 21.4413 6.82342 16.5618 11.1765 13.7807C11.1912 13.7711 11.207 13.7677 11.2245 13.7706C11.2419 13.7728 11.2561 13.7813 11.2673 13.7948C11.2786 13.8084 11.2837 13.8242 11.2831 13.8416C11.2826 13.8591 11.2764 13.8744 11.264 13.8868C8.49751 16.7898 6.79182 20.766 6.79182 25.1518V87.9512C6.79182 91.5375 9.61864 94.4456 13.1068 94.4456Z" fill="white"/>
</mask>
<g mask="url(#mask3_2204_268)">
<path d="M3.93738 13.7678V94.4457H13.1068V13.7678H3.93738Z" fill="white"/>
</g>
</g>
</svg>
