<svg width="27" height="26" viewBox="0 0 27 26" fill="none" xmlns="http://www.w3.org/2000/svg">
<path d="M14.1921 2.8053V1.96318V2.8053ZM15.3826 2.97913L15.8953 2.31105L15.8948 2.31069L15.3826 2.97913ZM15.4841 3.07092L16.098 2.49446L16.098 2.49443L15.4841 3.07092ZM15.7751 4.23889L14.9372 4.32248L15.7751 4.23889ZM16.3396 6.27893L15.9268 7.01291L15.9272 7.01314L16.3396 6.27893ZM16.5242 6.35608L16.2962 7.16677L16.2964 7.1668L16.5242 6.35608ZM18.3669 5.31213L18.9001 5.96397L18.3669 5.31213ZM19.3992 4.69299L19.3732 3.85127L19.3727 3.85129L19.3992 4.69299ZM19.5349 4.69983L19.6446 3.86488L19.6444 3.86485L19.5349 4.69983ZM21.4412 6.35901L20.8457 6.95448L21.4412 6.35901ZM22.1599 7.32385L22.9948 7.21372L22.9948 7.21358L22.1599 7.32385ZM22.1667 7.46057L23.0084 7.48721L23.0085 7.48709L22.1667 7.46057ZM21.5476 8.49182L22.1993 9.02519L21.5476 8.49182ZM20.5037 10.3336L19.6928 10.5609L19.6929 10.5611L20.5037 10.3336ZM20.5808 10.5182L19.8465 10.9305L19.8467 10.9307L20.5808 10.5182ZM22.6208 11.0826L22.7046 10.2447L22.6208 11.0826ZM23.7878 11.3746L24.3644 10.7609L24.3643 10.7607L23.7878 11.3746ZM23.8796 11.4762L24.5481 10.9641L24.5479 10.9637L23.8796 11.4762ZM23.8796 15.1871L24.5479 15.6995L24.548 15.6994L23.8796 15.1871ZM23.7878 15.2887L24.3641 15.9028L24.3643 15.9025L23.7878 15.2887ZM22.6208 15.5797L22.7045 16.4177L22.6208 15.5797ZM20.5808 16.1442L19.8468 15.7313L19.8467 15.7316L20.5808 16.1442ZM20.5037 16.3297L19.6928 16.1025L19.6926 16.1029L20.5037 16.3297ZM21.5476 18.1705L20.8958 18.7038L21.5476 18.1705ZM22.1667 19.2028L23.0085 19.1764L23.0085 19.1763L22.1667 19.2028ZM22.1599 19.3395L22.9948 19.4499L22.9948 19.4495L22.1599 19.3395ZM19.5359 21.9635L19.6457 22.7984L19.6464 22.7983L19.5359 21.9635ZM19.3992 21.9703L19.3726 22.812L19.373 22.8121L19.3992 21.9703ZM18.3669 21.3512L18.9002 20.6994L18.3669 21.3512ZM16.5251 20.3073L16.2977 19.4964L16.2973 19.4965L16.5251 20.3073ZM16.3406 20.3834L15.9285 19.649L15.9285 19.649L16.3406 20.3834ZM15.7761 22.4244L14.9382 22.3407L15.7761 22.4244ZM15.4841 23.5924L16.0978 24.1691L16.0979 24.169L15.4841 23.5924ZM15.3835 23.6842L15.8963 24.3522L15.8964 24.3522L15.3835 23.6842ZM11.6716 23.6842L11.1589 24.3522L11.159 24.3523L11.6716 23.6842ZM11.571 23.5924L10.9573 24.1691L10.9574 24.1691L11.571 23.5924ZM11.2791 22.4254L10.4411 22.5094L11.2791 22.4254ZM10.7136 20.3844L11.1258 19.65L11.1254 19.6498L10.7136 20.3844ZM10.5291 20.3082L10.7566 19.4974L10.7562 19.4973L10.5291 20.3082ZM8.68726 21.3522L9.22062 22.0039L8.68726 21.3522ZM7.65601 21.9713L7.68244 22.813L7.68256 22.813L7.65601 21.9713ZM7.51929 21.9645L7.40895 22.7993L7.40936 22.7994L7.51929 21.9645ZM6.55444 21.2457L7.14991 20.6503L6.55444 21.2457ZM5.61401 20.3053L5.01854 20.9008L5.61401 20.3053ZM4.89526 19.3395L4.06029 19.4489L4.06033 19.4493L4.89526 19.3395ZM4.88843 19.2037L4.04672 19.1773L4.04671 19.1777L4.88843 19.2037ZM5.50757 18.1715L6.15942 18.7047L5.50757 18.1715ZM6.55054 16.3297L7.36132 16.1021L7.36123 16.1018L6.55054 16.3297ZM6.47437 16.1451L7.20872 15.733L7.20871 15.7329L6.47437 16.1451ZM4.43433 15.5807L4.51812 14.7427L4.43433 15.5807ZM3.26636 15.2887L2.68972 15.9024L2.68978 15.9025L3.26636 15.2887ZM3.17456 15.1881L2.5065 15.7008L2.5066 15.7009L3.17456 15.1881ZM3.17456 11.4752L2.50657 10.9624L2.5065 10.9625L3.17456 11.4752ZM3.26636 11.3746L2.68974 10.7609L2.68951 10.7611L3.26636 11.3746ZM4.43433 11.0826L4.51831 11.9206L4.43433 11.0826ZM6.47437 10.5172L7.20873 10.9294L7.20886 10.9291L6.47437 10.5172ZM6.55054 10.3326L7.3613 10.5603L7.36142 10.5599L6.55054 10.3326ZM5.50757 8.49084L4.85579 9.0241L5.50757 8.49084ZM4.88843 7.45959L4.04672 7.48588L4.04672 7.48608L4.88843 7.45959ZM4.89526 7.32288L4.06042 7.2124L4.06035 7.21295L4.89526 7.32288ZM7.51929 4.69885L7.40936 3.86393L7.40895 3.86399L7.51929 4.69885ZM7.65601 4.69202L7.68256 3.85031L7.68244 3.85031L7.65601 4.69202ZM8.68726 5.31116L9.22062 4.65947L8.68726 5.31116ZM10.5291 6.3551L10.7562 7.16601L10.7566 7.16591L10.5291 6.3551ZM10.7136 6.27893L11.1254 7.01352L11.1258 7.01328L10.7136 6.27893ZM11.2791 4.23792L10.4411 4.15394L11.2791 4.23792ZM11.571 3.07092L10.9574 2.49419L10.9573 2.49427L11.571 3.07092ZM11.6716 2.97913L11.159 2.31103L11.1589 2.31108L11.6716 2.97913ZM13.5271 9.1217V8.27958H13.527L13.5271 9.1217ZM9.31714 13.3317L8.47502 13.3316V13.3317H9.31714ZM13.5271 17.5426L13.527 18.3847H13.5271V17.5426ZM17.738 13.3317H18.5802V13.3316L17.738 13.3317ZM14.1921 2.8053V3.64742C14.5331 3.64742 14.7172 3.64873 14.847 3.66365C14.9575 3.67637 14.9252 3.6896 14.8704 3.64756L15.3826 2.97913L15.8948 2.31069C15.6132 2.09489 15.3068 2.0212 15.0394 1.99044C14.7912 1.96189 14.4935 1.96318 14.1921 1.96318V2.8053ZM15.3826 2.97913L14.8699 3.6472L14.8703 3.64742L15.4841 3.07092L16.098 2.49443C16.0348 2.42712 15.9666 2.36578 15.8953 2.31105L15.3826 2.97913ZM15.4841 3.07092L14.8702 3.64739C14.8226 3.59661 14.8325 3.56268 14.8561 3.67162C14.8838 3.79948 14.9033 3.98266 14.9372 4.32248L15.7751 4.23889L16.6131 4.1553C16.5832 3.85556 16.555 3.55895 16.5021 3.31483C16.4451 3.05177 16.3414 2.75363 16.098 2.49446L15.4841 3.07092ZM15.7751 4.23889L14.9372 4.32248C14.9954 4.90606 15.046 5.42965 15.1402 5.82839C15.2335 6.22348 15.4191 6.72734 15.9268 7.01291L16.3396 6.27893L16.7524 5.54495C16.8784 5.61579 16.8424 5.70811 16.7793 5.44111C16.7171 5.17775 16.6763 4.78869 16.6131 4.1553L15.7751 4.23889ZM16.3396 6.27893L15.9272 7.01314C16.0392 7.07609 16.1629 7.12927 16.2962 7.16677L16.5242 6.35608L16.7521 5.54539L16.752 5.54473L16.3396 6.27893ZM16.5242 6.35608L16.2964 7.1668C16.858 7.32462 17.3461 7.0988 17.6913 6.88546C18.0398 6.67005 18.4461 6.33535 18.9001 5.96397L18.3669 5.31213L17.8338 4.6603C17.3406 5.06371 17.0364 5.31024 16.8058 5.45274C16.5719 5.59732 16.6122 5.50608 16.752 5.54536L16.5242 6.35608ZM18.3669 5.31213L18.9001 5.96397C19.164 5.74809 19.3075 5.63252 19.4174 5.56204C19.5109 5.50198 19.4945 5.53253 19.4257 5.5347L19.3992 4.69299L19.3727 3.85129C19.0182 3.86246 18.7344 3.99909 18.5076 4.14461C18.2971 4.27971 18.0674 4.46921 17.8338 4.6603L18.3669 5.31213ZM19.3992 4.69299L19.4251 5.53472L19.4255 5.53481L19.5349 4.69983L19.6444 3.86485C19.5556 3.85321 19.4646 3.84845 19.3732 3.85127L19.3992 4.69299ZM19.5349 4.69983L19.4252 5.53478C19.357 5.52582 19.3437 5.49379 19.4307 5.56274C19.5329 5.64371 19.6642 5.77295 19.9053 6.01405L20.5007 5.41858L21.0962 4.82311C20.8827 4.6096 20.6728 4.39809 20.4767 4.24265C20.2653 4.07519 19.9963 3.91109 19.6446 3.86488L19.5349 4.69983ZM20.5007 5.41858L19.9053 6.01405L20.8457 6.95448L21.4412 6.35901L22.0366 5.76354L21.0962 4.82311L20.5007 5.41858ZM21.4412 6.35901L20.8457 6.95448C21.0867 7.19552 21.216 7.32669 21.2971 7.42894C21.3663 7.5161 21.3341 7.50262 21.325 7.43412L22.1599 7.32385L22.9948 7.21358C22.9483 6.86184 22.7839 6.59304 22.6166 6.38215C22.4612 6.18634 22.2498 5.9767 22.0366 5.76354L21.4412 6.35901ZM22.1599 7.32385L21.325 7.43398L21.325 7.43405L22.1667 7.46057L23.0085 7.48709C23.0113 7.39555 23.0067 7.30408 22.9948 7.21372L22.1599 7.32385ZM22.1667 7.46057L21.325 7.43393C21.3272 7.36489 21.3579 7.3482 21.2979 7.44164C21.2274 7.55137 21.1119 7.69463 20.8959 7.95846L21.5476 8.49182L22.1993 9.02519C22.3902 8.79195 22.5797 8.56237 22.7148 8.35214C22.8604 8.12561 22.9972 7.84183 23.0084 7.48721L22.1667 7.46057ZM21.5476 8.49182L20.8959 7.95846C20.5246 8.41214 20.19 8.81818 19.9746 9.16662C19.7612 9.51168 19.5354 9.99951 19.6928 10.5609L20.5037 10.3336L21.3145 10.1063C21.3537 10.246 21.2626 10.2861 21.4071 10.0523C21.5496 9.82188 21.7961 9.51788 22.1993 9.02519L21.5476 8.49182ZM20.5037 10.3336L19.6929 10.5611C19.7305 10.6953 19.7838 10.8188 19.8465 10.9305L20.5808 10.5182L21.3151 10.1059L21.3145 10.1061L20.5037 10.3336ZM20.5808 10.5182L19.8467 10.9307C20.1322 11.4389 20.6365 11.6243 21.0314 11.7176C21.43 11.8117 21.9537 11.8622 22.5371 11.9206L22.6208 11.0826L22.7046 10.2447C22.0711 10.1813 21.682 10.1406 21.4185 10.0784C21.1512 10.0153 21.244 9.9793 21.315 10.1056L20.5808 10.5182ZM22.6208 11.0826L22.5371 11.9206C22.876 11.9545 23.059 11.9742 23.1863 12.002C23.2948 12.0257 23.2616 12.0356 23.2114 11.9886L23.7878 11.3746L24.3643 10.7607C24.1058 10.5181 23.8087 10.414 23.5455 10.3565C23.3011 10.3032 23.0048 10.2747 22.7046 10.2447L22.6208 11.0826ZM23.7878 11.3746L23.2113 11.9884L23.2114 11.9887L23.8796 11.4762L24.5479 10.9637C24.4929 10.892 24.4315 10.8239 24.3644 10.7609L23.7878 11.3746ZM23.8796 11.4762L23.2111 11.9883C23.1691 11.9334 23.1823 11.9012 23.1951 12.0119C23.21 12.1416 23.2113 12.3258 23.2113 12.6666H24.0535H24.8956C24.8956 12.3653 24.8969 12.0676 24.8683 11.8194C24.8375 11.5521 24.7639 11.2457 24.5481 10.9641L23.8796 11.4762ZM24.0535 12.6666H23.2113V13.9967H24.0535H24.8956V12.6666H24.0535ZM24.0535 13.9967H23.2113C23.2113 14.3376 23.21 14.5218 23.1951 14.6515C23.1824 14.7622 23.1691 14.7298 23.2113 14.6748L23.8796 15.1871L24.548 15.6994C24.7639 15.4178 24.8376 15.1113 24.8683 14.844C24.8969 14.5957 24.8956 14.298 24.8956 13.9967H24.0535ZM23.8796 15.1871L23.2113 14.6747L23.2113 14.6748L23.7878 15.2887L24.3643 15.9025C24.4316 15.8394 24.4929 15.7714 24.5479 15.6995L23.8796 15.1871ZM23.7878 15.2887L23.2116 14.6746C23.2622 14.6271 23.2959 14.637 23.1871 14.6606C23.0595 14.6884 22.8765 14.7079 22.5372 14.7418L22.6208 15.5797L22.7045 16.4177C23.0041 16.3878 23.3004 16.3595 23.5445 16.3065C23.8074 16.2494 24.1052 16.1457 24.3641 15.9028L23.7878 15.2887ZM22.6208 15.5797L22.5372 14.7418C21.9538 14.8 21.4302 14.8506 21.0314 14.9448C20.6365 15.0381 20.1324 15.2236 19.8468 15.7313L20.5808 16.1442L21.3148 16.557C21.2439 16.6831 21.1515 16.6471 21.4187 16.5839C21.6822 16.5217 22.0713 16.4809 22.7045 16.4177L22.6208 15.5797ZM20.5808 16.1442L19.8467 15.7316C19.7821 15.8465 19.7296 15.9709 19.6928 16.1025L20.5037 16.3297L21.3145 16.5569L21.3149 16.5567L20.5808 16.1442ZM20.5037 16.3297L19.6926 16.1029C19.5357 16.6642 19.7617 17.1518 19.975 17.4964C20.1903 17.8445 20.5248 18.2503 20.8958 18.7038L21.5476 18.1705L22.1994 17.6373C21.7962 17.1445 21.5498 16.8407 21.4073 16.6103C21.2626 16.3765 21.3538 16.4167 21.3147 16.5565L20.5037 16.3297ZM21.5476 18.1705L20.8958 18.7038C21.1117 18.9676 21.2272 19.1111 21.2977 19.2209C21.3577 19.3145 21.3272 19.298 21.325 19.2292L22.1667 19.2028L23.0085 19.1763C22.9973 18.8219 22.8607 18.538 22.7152 18.3112C22.58 18.1007 22.3905 17.8709 22.1994 17.6373L21.5476 18.1705ZM22.1667 19.2028L21.325 19.2292L21.325 19.2295L22.1599 19.3395L22.9948 19.4495C23.0067 19.3593 23.0113 19.2677 23.0085 19.1764L22.1667 19.2028ZM22.1599 19.3395L21.3251 19.229C21.3341 19.1606 21.3662 19.1472 21.2971 19.2344C21.216 19.3367 21.0867 19.4678 20.8457 19.7089L21.4412 20.3043L22.0366 20.8998C22.2498 20.6866 22.4612 20.477 22.6165 20.2812C22.7838 20.0703 22.9483 19.8015 22.9948 19.4499L22.1599 19.3395ZM21.4412 20.3043L20.8457 19.7089L19.9053 20.6493L20.5007 21.2448L21.0962 21.8402L22.0366 20.8998L21.4412 20.3043ZM20.5007 21.2448L19.9053 20.6493C19.6642 20.8903 19.5331 21.0196 19.4308 21.1007C19.3437 21.1698 19.3571 21.1377 19.4254 21.1287L19.5359 21.9635L19.6464 22.7983C19.9979 22.7518 20.2666 22.5875 20.4776 22.4201C20.6734 22.2648 20.883 22.0534 21.0962 21.8402L20.5007 21.2448ZM19.5359 21.9635L19.4261 21.1286L19.4254 21.1286L19.3992 21.9703L19.373 22.8121C19.4641 22.8149 19.5558 22.8103 19.6457 22.7984L19.5359 21.9635ZM19.3992 21.9703L19.4257 21.1286C19.4945 21.1308 19.5109 21.1613 19.4173 21.1013C19.3075 21.0308 19.164 20.9152 18.9002 20.6994L18.3669 21.3512L17.8337 22.003C18.0673 22.1941 18.297 22.3836 18.5076 22.5187C18.7344 22.6642 19.0182 22.8009 19.3726 22.812L19.3992 21.9703ZM18.3669 21.3512L18.9002 20.6994C18.4465 20.3282 18.0405 19.9936 17.6922 19.7782C17.3471 19.5648 16.8592 19.3389 16.2977 19.4964L16.5251 20.3073L16.7526 21.1181C16.6129 21.1573 16.5726 21.0661 16.8063 21.2106C17.0368 21.3531 17.3407 21.5996 17.8337 22.003L18.3669 21.3512ZM16.5251 20.3073L16.2973 19.4965C16.1709 19.5321 16.0467 19.5827 15.9285 19.649L16.3406 20.3834L16.7526 21.1179L16.753 21.118L16.5251 20.3073ZM16.3406 20.3834L15.9285 19.649C15.4196 19.9346 15.2342 20.4396 15.141 20.8345C15.047 21.2333 14.9965 21.7572 14.9382 22.3407L15.7761 22.4244L16.6141 22.5082C16.6774 21.8743 16.7181 21.4849 16.7803 21.2211C16.8434 20.9535 16.8794 21.0467 16.7527 21.1178L16.3406 20.3834ZM15.7761 22.4244L14.9382 22.3407C14.9043 22.68 14.8845 22.8632 14.8567 22.9908C14.833 23.0995 14.8231 23.0662 14.8703 23.0159L15.4841 23.5924L16.0979 24.169C16.3409 23.9103 16.445 23.6127 16.5024 23.3494C16.5556 23.105 16.5841 22.8085 16.6141 22.5082L15.7761 22.4244ZM15.4841 23.5924L14.8704 23.0157L14.8707 23.0163L15.3835 23.6842L15.8964 24.3522C15.9737 24.2928 16.0406 24.23 16.0978 24.1691L15.4841 23.5924ZM15.3835 23.6842L14.8708 23.0162C14.926 22.9738 14.9587 22.9871 14.8479 22.9998C14.7179 23.0147 14.5336 23.0159 14.1921 23.0159V23.858V24.7002C14.4935 24.7002 14.7915 24.7015 15.0398 24.673C15.3073 24.6424 15.6143 24.5687 15.8963 24.3522L15.3835 23.6842ZM14.1921 23.858V23.0159H12.863V23.858V24.7002H14.1921V23.858ZM12.863 23.858V23.0159C12.5217 23.0159 12.3374 23.0147 12.2074 22.9997C12.0964 22.987 12.1291 22.9737 12.1843 23.0161L11.6716 23.6842L11.159 24.3523C11.441 24.5687 11.748 24.6423 12.0154 24.673C12.2637 24.7015 12.5617 24.7002 12.863 24.7002V23.858ZM11.6716 23.6842L12.1844 23.0162L12.1847 23.0157L11.571 23.5924L10.9574 24.1691C11.0145 24.2299 11.0814 24.2927 11.1589 24.3522L11.6716 23.6842ZM11.571 23.5924L12.1848 23.0158C12.232 23.066 12.2221 23.0995 12.1985 22.9911C12.1707 22.8637 12.151 22.6807 12.117 22.3414L11.2791 22.4254L10.4411 22.5094C10.4712 22.8094 10.4996 23.1058 10.5529 23.35C10.6103 23.6131 10.7144 23.9105 10.9573 24.1691L11.571 23.5924ZM11.2791 22.4254L12.117 22.3414C12.0585 21.7578 12.0077 21.2339 11.9134 20.8351C11.82 20.4401 11.6343 19.9355 11.1258 19.65L10.7136 20.3844L10.3014 21.1188C10.175 21.0478 10.211 20.955 10.2743 21.2227C10.3367 21.4864 10.3776 21.8758 10.4411 22.5094L11.2791 22.4254ZM10.7136 20.3844L11.1254 19.6498C11.0078 19.5839 10.8837 19.5331 10.7566 19.4974L10.5291 20.3082L10.3015 21.119L10.3019 21.119L10.7136 20.3844ZM10.5291 20.3082L10.7562 19.4973C10.1949 19.3401 9.70712 19.5658 9.36204 19.7792C9.01359 19.9946 8.60757 20.3292 8.15389 20.7005L8.68726 21.3522L9.22062 22.0039C9.7133 21.6006 10.0173 21.3542 10.2477 21.2117C10.4815 21.0672 10.4415 21.1582 10.3019 21.1191L10.5291 20.3082ZM8.68726 21.3522L8.15389 20.7005C7.89003 20.9164 7.7468 21.032 7.63706 21.1025C7.54365 21.1625 7.56039 21.1318 7.62945 21.1296L7.65601 21.9713L7.68256 22.813C8.03725 22.8018 8.32107 22.665 8.54761 22.5194C8.75783 22.3843 8.98741 22.1947 9.22062 22.0039L8.68726 21.3522ZM7.65601 21.9713L7.62958 21.1296L7.62921 21.1296L7.51929 21.9645L7.40936 22.7994C7.49941 22.8113 7.59098 22.8159 7.68244 22.813L7.65601 21.9713ZM7.51929 21.9645L7.62963 21.1296C7.69803 21.1387 7.71149 21.1708 7.62438 21.1017C7.52214 21.0206 7.391 20.8913 7.14991 20.6503L6.55444 21.2457L5.95897 21.8412C6.17216 22.0544 6.3818 22.2658 6.5776 22.4211C6.78853 22.5885 7.05728 22.7529 7.40895 22.7993L7.51929 21.9645ZM6.55444 21.2457L7.14991 20.6503L6.20948 19.7098L5.61401 20.3053L5.01854 20.9008L5.95897 21.8412L6.55444 21.2457ZM5.61401 20.3053L6.20948 19.7098C5.96848 19.4688 5.83922 19.3375 5.75824 19.2353C5.68923 19.1482 5.72123 19.1615 5.7302 19.2297L4.89526 19.3395L4.06033 19.4493C4.10658 19.8009 4.2707 20.0699 4.43811 20.2812C4.59356 20.4774 4.80504 20.6873 5.01854 20.9008L5.61401 20.3053ZM4.89526 19.3395L5.73024 19.23L5.73015 19.2298L4.88843 19.2037L4.04671 19.1777C4.04387 19.2693 4.04864 19.3601 4.06029 19.4489L4.89526 19.3395ZM4.88843 19.2037L5.73013 19.2302C5.72797 19.2991 5.69737 19.3156 5.7575 19.2219C5.82801 19.1121 5.94359 18.9685 6.15942 18.7047L5.50757 18.1715L4.85572 17.6383C4.6647 17.8719 4.4752 18.1017 4.3401 18.3121C4.19461 18.5388 4.05787 18.8227 4.04672 19.1773L4.88843 19.2037ZM5.50757 18.1715L6.15942 18.7047C6.53059 18.2509 6.86503 17.8448 7.08028 17.4963C7.29355 17.1511 7.51887 16.6633 7.36132 16.1021L6.55054 16.3297L5.73976 16.5573C5.70061 16.4179 5.79159 16.3777 5.64735 16.6112C5.50508 16.8416 5.25883 17.1455 4.85572 17.6383L5.50757 18.1715ZM6.55054 16.3297L7.36123 16.1018C7.32574 15.9756 7.27515 15.8513 7.20872 15.733L6.47437 16.1451L5.74001 16.5573L5.73984 16.5576L6.55054 16.3297ZM6.47437 16.1451L7.20871 15.7329C6.92321 15.2243 6.41866 15.0389 6.02371 14.9457C5.62511 14.8516 5.10139 14.8011 4.51812 14.7427L4.43433 15.5807L4.35053 16.4186C4.98421 16.482 5.37328 16.5227 5.63683 16.5849C5.90405 16.6479 5.81104 16.6839 5.74003 16.5573L6.47437 16.1451ZM4.43433 15.5807L4.51812 14.7427C4.17883 14.7088 3.99558 14.6891 3.86798 14.6613C3.75917 14.6376 3.79258 14.6276 3.84293 14.6749L3.26636 15.2887L2.68978 15.9025C2.9485 16.1455 3.24614 16.2496 3.50935 16.3069C3.75377 16.3602 4.05033 16.3886 4.35053 16.4186L4.43433 15.5807ZM3.26636 15.2887L3.84299 14.675L3.84252 14.6753L3.17456 15.1881L2.5066 15.7009C2.56598 15.7783 2.62871 15.8451 2.68972 15.9024L3.26636 15.2887ZM3.17456 15.1881L3.84262 14.6754C3.885 14.7306 3.87173 14.7633 3.85901 14.6524C3.84409 14.5224 3.84285 14.3381 3.84285 13.9967H3.00073H2.15861C2.15861 14.2981 2.15725 14.596 2.18574 14.8444C2.21642 15.1118 2.29006 15.4188 2.5065 15.7008L3.17456 15.1881ZM3.00073 13.9967H3.84285V12.6666H3.00073H2.15861V13.9967H3.00073ZM3.00073 12.6666H3.84285C3.84285 12.3252 3.84409 12.1409 3.859 12.0109C3.87172 11.9001 3.88498 11.9327 3.84262 11.9879L3.17456 11.4752L2.5065 10.9625C2.29006 11.2445 2.21641 11.5515 2.18573 11.819C2.15725 12.0673 2.15861 12.3653 2.15861 12.6666H3.00073ZM3.17456 11.4752L3.84256 11.988L3.8432 11.9882L3.26636 11.3746L2.68951 10.7611C2.6289 10.8181 2.56604 10.885 2.50657 10.9624L3.17456 11.4752ZM3.26636 11.3746L3.84297 11.9884C3.79253 12.0358 3.759 12.0258 3.86787 12.0021C3.99557 11.9743 4.17882 11.9546 4.51831 11.9206L4.43433 11.0826L4.35035 10.2447C4.05025 10.2748 3.75369 10.3032 3.50938 10.3565C3.24625 10.4138 2.94853 10.5178 2.68974 10.7609L3.26636 11.3746ZM4.43433 11.0826L4.51831 11.9206C5.10184 11.8621 5.62554 11.8113 6.02427 11.7169C6.41932 11.6234 6.92346 11.4377 7.20873 10.9294L6.47437 10.5172L5.74 10.1051C5.81086 9.9788 5.9035 10.0148 5.63638 10.078C5.37296 10.1403 4.98384 10.1812 4.35035 10.2447L4.43433 11.0826ZM6.47437 10.5172L7.20886 10.9291C7.27497 10.8113 7.32571 10.6871 7.3613 10.5603L6.55054 10.3326L5.73977 10.105L5.73987 10.1053L6.47437 10.5172ZM6.55054 10.3326L7.36142 10.5599C7.51862 9.99894 7.29351 9.51137 7.08025 9.16602C6.865 8.81744 6.53062 8.41139 6.15934 7.95759L5.50757 8.49084L4.85579 9.0241C5.25881 9.51669 5.50502 9.82067 5.64722 10.0509C5.79142 10.2845 5.70064 10.2446 5.73966 10.1054L6.55054 10.3326ZM5.50757 8.49084L6.15934 7.95759C5.94334 7.69357 5.82781 7.55035 5.75724 7.44056C5.69717 7.3471 5.72796 7.36392 5.73013 7.43311L4.88843 7.45959L4.04672 7.48608C4.05789 7.84089 4.19485 8.12474 4.34042 8.35122C4.47548 8.56134 4.66503 8.79093 4.85579 9.0241L5.50757 8.49084ZM4.88843 7.45959L5.73014 7.43331L5.73018 7.4328L4.89526 7.32288L4.06035 7.21295C4.04848 7.30305 4.04387 7.39466 4.04672 7.48588L4.88843 7.45959ZM4.89526 7.32288L5.73011 7.43336C5.72106 7.50172 5.68896 7.51511 5.75811 7.42794C5.83922 7.32569 5.96848 7.19451 6.20948 6.9535L5.61401 6.35803L5.01854 5.76256C4.80535 5.97576 4.59397 6.18538 4.43863 6.3812C4.27133 6.5921 4.10695 6.86081 4.06042 7.2124L4.89526 7.32288ZM5.61401 6.35803L6.20948 6.9535L7.14991 6.01307L6.55444 5.4176L5.95897 4.82213L5.01854 5.76256L5.61401 6.35803ZM6.55444 5.4176L7.14991 6.01307C7.391 5.77199 7.52214 5.64275 7.62438 5.56164C7.71149 5.49253 7.69803 5.52467 7.62963 5.53371L7.51929 4.69885L7.40895 3.86399C7.05728 3.91047 6.78853 4.07485 6.5776 4.24219C6.3818 4.39753 6.17216 4.60894 5.95897 4.82213L6.55444 5.4176ZM7.51929 4.69885L7.62921 5.53377L7.62958 5.53372L7.65601 4.69202L7.68244 3.85031C7.59098 3.84744 7.49941 3.85208 7.40936 3.86393L7.51929 4.69885ZM7.65601 4.69202L7.62945 5.53372C7.56039 5.53154 7.54365 5.50083 7.63706 5.56085C7.7468 5.63137 7.89003 5.74689 8.15389 5.96284L8.68726 5.31116L9.22062 4.65947C8.98741 4.4686 8.75783 4.27905 8.54761 4.14396C8.32107 3.99838 8.03725 3.8615 7.68256 3.85031L7.65601 4.69202ZM8.68726 5.31116L8.15389 5.96284C8.60757 6.33415 9.01359 6.66875 9.36204 6.88418C9.70712 7.09751 10.1949 7.32326 10.7562 7.16601L10.5291 6.3551L10.3019 5.5442C10.4415 5.5051 10.4815 5.59614 10.2477 5.4516C10.0173 5.30915 9.7133 5.0627 9.22062 4.65947L8.68726 5.31116ZM10.5291 6.3551L10.7566 7.16591C10.8837 7.13025 11.0078 7.07942 11.1254 7.01352L10.7136 6.27893L10.3019 5.54434L10.3015 5.54429L10.5291 6.3551ZM10.7136 6.27893L11.1258 7.01328C11.6343 6.72787 11.82 6.22323 11.9134 5.82828C12.0077 5.42939 12.0585 4.90551 12.117 4.32189L11.2791 4.23792L10.4411 4.15394C10.3776 4.78753 10.3367 5.17693 10.2743 5.44065C10.211 5.70829 10.175 5.61556 10.3014 5.54458L10.7136 6.27893ZM11.2791 4.23792L12.117 4.32189C12.151 3.98266 12.1707 3.79968 12.1985 3.67227C12.2221 3.56381 12.232 3.59729 12.1848 3.64758L11.571 3.07092L10.9573 2.49427C10.7144 2.75282 10.6103 3.05019 10.5529 3.31335C10.4996 3.55757 10.4712 3.85395 10.4411 4.15394L11.2791 4.23792ZM11.571 3.07092L12.1847 3.64765L12.1844 3.64717L11.6716 2.97913L11.1589 2.31108C11.0814 2.3706 11.0145 2.43339 10.9574 2.49419L11.571 3.07092ZM11.6716 2.97913L12.1843 3.64722C12.1291 3.6896 12.0964 3.67631 12.2074 3.66359C12.3374 3.64867 12.5217 3.64742 12.863 3.64742V2.8053V1.96318C12.5617 1.96318 12.2637 1.96183 12.0154 1.99032C11.748 2.02099 11.441 2.09462 11.159 2.31103L11.6716 2.97913ZM12.863 2.8053V3.64742H14.1921V2.8053V1.96318H12.863V2.8053ZM13.5271 9.1217L13.527 8.27958C10.7368 8.27977 8.47514 10.5413 8.47502 13.3316L9.31714 13.3317L10.1593 13.3317C10.1593 11.4715 11.6669 9.96395 13.5272 9.96383L13.5271 9.1217ZM9.31714 13.3317H8.47502C8.47502 16.1219 10.7365 18.3845 13.527 18.3847L13.5271 17.5426L13.5272 16.7005C11.6671 16.7004 10.1593 15.1921 10.1593 13.3317H9.31714ZM13.5271 17.5426V18.3847C16.3176 18.3847 18.5802 16.1222 18.5802 13.3317H17.738H16.8959C16.8959 15.192 15.3875 16.7005 13.5271 16.7005V17.5426ZM17.738 13.3317L18.5802 13.3316C18.58 10.541 16.3174 8.27958 13.5271 8.27958V9.1217V9.96383C15.3876 9.96383 16.8958 11.4716 16.8959 13.3317L17.738 13.3317Z" fill="#274C77"/>
</svg>
