<svg width="32" height="16" viewBox="0 0 32 16" fill="none" xmlns="http://www.w3.org/2000/svg">
<mask id="mask0_2211_247" style="mask-type:luminance" maskUnits="userSpaceOnUse" x="7" y="0" width="20" height="16">
<path d="M7.27417 0.373047H26.4618V15.6434H7.27417V0.373047Z" fill="white"/>
</mask>
<g mask="url(#mask0_2211_247)">
<path d="M25.2065 15.6381H7.66704C7.47132 15.6381 7.31262 15.4792 7.31262 15.2831V0.733324C7.31262 0.537423 7.47132 0.37854 7.66704 0.37854H25.2065C25.8904 0.37854 26.4468 0.935639 26.4468 1.62047V14.396C26.4468 15.0808 25.8904 15.6381 25.2065 15.6381ZM8.02127 14.9283H25.2065C25.4997 14.9283 25.7381 14.6896 25.7381 14.396V1.62047C25.7381 1.32707 25.4997 1.08829 25.2065 1.08829H8.02127V14.9283Z" fill="#274C77"/>
</g>
<path d="M28.2185 10.3149H26.0924C25.8969 10.3149 25.7382 10.156 25.7382 9.96009V5.70159C25.7382 5.50568 25.8969 5.3468 26.0924 5.3468H28.2185C28.4141 5.3468 28.5728 5.50568 28.5728 5.70159V9.96009C28.5728 10.156 28.4141 10.3149 28.2185 10.3149ZM26.4468 9.60513H27.8641V6.05655H26.4468V9.60513Z" fill="#274C77"/>
<path d="M29.99 9.25032H28.2184C28.0227 9.25032 27.864 9.09144 27.864 8.89535V6.7661C27.864 6.5702 28.0227 6.41132 28.2184 6.41132H29.99C30.1857 6.41132 30.3444 6.5702 30.3444 6.7661V8.89535C30.3444 9.09144 30.1857 9.25032 29.99 9.25032ZM28.5727 8.54057H29.6357V7.12107H28.5727V8.54057Z" fill="#274C77"/>
<mask id="mask1_2211_247" style="mask-type:luminance" maskUnits="userSpaceOnUse" x="25" y="12" width="7" height="3">
<path d="M25.7112 12.0815H31.0531V14.2395H25.7112V12.0815Z" fill="white"/>
</mask>
<g mask="url(#mask1_2211_247)">
<path d="M30.6989 14.2186H26.0924C25.8969 14.2186 25.7382 14.0597 25.7382 13.8636V12.4441C25.7382 12.2482 25.8969 12.0894 26.0924 12.0894H30.6989C30.8944 12.0894 31.0531 12.2482 31.0531 12.4441V13.8636C31.0531 14.0597 30.8944 14.2186 30.6989 14.2186ZM26.4468 13.5089H30.3445V12.7991H26.4468V13.5089Z" fill="#274C77"/>
</g>
<mask id="mask2_2211_247" style="mask-type:luminance" maskUnits="userSpaceOnUse" x="25" y="1" width="7" height="3">
<path d="M25.7112 1.43207H31.0531V3.59009H25.7112V1.43207Z" fill="white"/>
</mask>
<g mask="url(#mask2_2211_247)">
<path d="M30.6989 3.57231H26.0924C25.8969 3.57231 25.7382 3.41342 25.7382 3.21752V1.79802C25.7382 1.60194 25.8969 1.44305 26.0924 1.44305H30.6989C30.8944 1.44305 31.0531 1.60194 31.0531 1.79802V3.21752C31.0531 3.41342 30.8944 3.57231 30.6989 3.57231ZM26.4468 2.86256H30.3445V2.15281H26.4468V2.86256Z" fill="#274C77"/>
</g>
<mask id="mask3_2211_247" style="mask-type:luminance" maskUnits="userSpaceOnUse" x="20" y="0" width="2" height="16">
<path d="M20.4099 0.373047H21.1605V15.6434H20.4099V0.373047Z" fill="white"/>
</mask>
<g mask="url(#mask3_2211_247)">
<path d="M20.7774 15.6381C20.5817 15.6381 20.423 15.4792 20.423 15.2831V0.733324C20.423 0.537423 20.5817 0.37854 20.7774 0.37854C20.9731 0.37854 21.1318 0.537423 21.1318 0.733324V15.2831C21.1318 15.4792 20.9731 15.6381 20.7774 15.6381Z" fill="#274C77"/>
</g>
<path d="M7.66698 11.0246H6.2495C6.05396 11.0246 5.89526 10.8657 5.89526 10.6698V5.34679C5.89526 5.1507 6.05396 4.99182 6.2495 4.99182H7.66698C7.86252 4.99182 8.02122 5.1507 8.02122 5.34679V10.6698C8.02122 10.8657 7.86252 11.0246 7.66698 11.0246ZM6.60392 10.3149H7.31257V5.70157H6.60392V10.3149Z" fill="#274C77"/>
<path d="M6.24952 9.25033H3.76915C3.57362 9.25033 3.41492 9.09145 3.41492 8.89537V7.12108C3.41492 6.92518 3.57362 6.76611 3.76915 6.76611H6.24952C6.44524 6.76611 6.60394 6.92518 6.60394 7.12108V8.89537C6.60394 9.09145 6.44524 9.25033 6.24952 9.25033ZM4.12357 8.54058H5.89529V7.47586H4.12357V8.54058Z" fill="#274C77"/>
<mask id="mask4_2211_247" style="mask-type:luminance" maskUnits="userSpaceOnUse" x="0" y="3" width="5" height="10">
<path d="M0.93457 3.91852H4.13092V12.1284H0.93457V3.91852Z" fill="white"/>
</mask>
<g mask="url(#mask4_2211_247)">
<path d="M3.76918 12.0893H1.28899C1.09327 12.0893 0.93457 11.9304 0.93457 11.7343V4.28203C0.93457 4.08613 1.09327 3.92725 1.28899 3.92725H3.76918C3.96489 3.92725 4.12359 4.08613 4.12359 4.28203V11.7343C4.12359 11.9304 3.96489 12.0893 3.76918 12.0893ZM1.64322 11.3795H3.41494V4.637H1.64322V11.3795Z" fill="#274C77"/>
</g>
<mask id="mask5_2211_247" style="mask-type:luminance" maskUnits="userSpaceOnUse" x="0" y="5" width="5" height="2">
<path d="M0.93457 5.70123H4.13092V6.45185H0.93457V5.70123Z" fill="white"/>
</mask>
<g mask="url(#mask5_2211_247)">
<path d="M3.76918 6.41123H1.28899C1.09327 6.41123 0.93457 6.25235 0.93457 6.05644C0.93457 5.86036 1.09327 5.70148 1.28899 5.70148H3.76918C3.96489 5.70148 4.12359 5.86036 4.12359 6.05644C4.12359 6.25235 3.96489 6.41123 3.76918 6.41123Z" fill="#274C77"/>
</g>
<mask id="mask6_2211_247" style="mask-type:luminance" maskUnits="userSpaceOnUse" x="0" y="7" width="5" height="2">
<path d="M0.93457 7.43701H4.13092V8.18763H0.93457V7.43701Z" fill="white"/>
</mask>
<g mask="url(#mask6_2211_247)">
<path d="M3.76918 8.18564H1.28899C1.09327 8.18564 0.93457 8.02676 0.93457 7.83086C0.93457 7.63496 1.09327 7.47589 1.28899 7.47589H3.76918C3.96489 7.47589 4.12359 7.63496 4.12359 7.83086C4.12359 8.02676 3.96489 8.18564 3.76918 8.18564Z" fill="#274C77"/>
</g>
<mask id="mask7_2211_247" style="mask-type:luminance" maskUnits="userSpaceOnUse" x="0" y="9" width="5" height="2">
<path d="M0.93457 9.59503H4.13092V10.3456H0.93457V9.59503Z" fill="white"/>
</mask>
<g mask="url(#mask7_2211_247)">
<path d="M3.76918 10.3149H1.28899C1.09327 10.3149 0.93457 10.156 0.93457 9.96007C0.93457 9.76417 1.09327 9.6051 1.28899 9.6051H3.76918C3.96489 9.6051 4.12359 9.76417 4.12359 9.96007C4.12359 10.156 3.96489 10.3149 3.76918 10.3149Z" fill="#274C77"/>
</g>
<path d="M20.7774 11.3796H11.9189C11.7234 11.3796 11.5647 11.2207 11.5647 11.0246V5.34679C11.5647 5.1507 11.7234 4.99182 11.9189 4.99182H20.7774C20.9731 4.99182 21.1318 5.1507 21.1318 5.34679V11.0246C21.1318 11.2207 20.9731 11.3796 20.7774 11.3796ZM12.2733 10.6698H20.4229V5.70157H12.2733V10.6698Z" fill="#274C77"/>
<path d="M9.43858 5.70157C9.24305 5.70157 9.08435 5.54268 9.08435 5.34678V3.57231C9.08435 3.37641 9.24305 3.21753 9.43858 3.21753C9.6343 3.21753 9.793 3.37641 9.793 3.57231V5.34678C9.793 5.54268 9.6343 5.70157 9.43858 5.70157Z" fill="#274C77"/>
<path d="M9.43858 9.25033C9.24305 9.25033 9.08435 9.09145 9.08435 8.89537V7.12108C9.08435 6.92518 9.24305 6.76611 9.43858 6.76611C9.6343 6.76611 9.793 6.92518 9.793 7.12108V8.89537C9.793 9.09145 9.6343 9.25033 9.43858 9.25033Z" fill="#274C77"/>
<path d="M9.43858 12.7991C9.24305 12.7991 9.08435 12.6402 9.08435 12.4441V10.6698C9.08435 10.4739 9.24305 10.3149 9.43858 10.3149C9.6343 10.3149 9.793 10.4739 9.793 10.6698V12.4441C9.793 12.6402 9.6343 12.7991 9.43858 12.7991Z" fill="#274C77"/>
</svg>
