<svg width="27" height="26" viewBox="0 0 27 26" fill="none" xmlns="http://www.w3.org/2000/svg">
<path d="M6.15894 13.9601C6.15894 12.5309 6.15894 11.8162 6.44785 11.1881C6.73676 10.5599 7.27934 10.0949 8.36451 9.16471L9.41716 8.26244C11.3786 6.58121 12.3593 5.7406 13.5275 5.7406C14.6957 5.7406 15.6764 6.58121 17.6379 8.26244L18.6905 9.16471C19.7757 10.0949 20.3183 10.5599 20.6072 11.1881C20.8961 11.8162 20.8961 12.5309 20.8961 13.9601V18.4238C20.8961 20.4087 20.8961 21.4011 20.2794 22.0178C19.6628 22.6344 18.6704 22.6344 16.6855 22.6344H10.3695C8.38465 22.6344 7.3922 22.6344 6.77557 22.0178C6.15894 21.4011 6.15894 20.4087 6.15894 18.4238V13.9601Z" stroke="#E7ECEF" stroke-width="1.68424"/>
<path d="M16.1593 22.6344V17.1606C16.1593 16.6955 15.7822 16.3185 15.3171 16.3185H11.7381C11.273 16.3185 10.896 16.6955 10.896 17.1606V22.6344" stroke="#E7ECEF" stroke-width="1.68424" stroke-linecap="round" stroke-linejoin="round"/>
</svg>
