<svg width="27" height="26" viewBox="0 0 27 26" fill="none" xmlns="http://www.w3.org/2000/svg">
<path d="M6.15918 14.0656C6.15918 12.6363 6.15918 11.9217 6.44809 11.2936C6.737 10.6654 7.27959 10.2003 8.36475 9.27018L9.41741 8.3679C11.3788 6.68668 12.3595 5.84607 13.5278 5.84607C14.696 5.84607 15.6767 6.68668 17.6381 8.3679L18.6908 9.27018C19.7759 10.2003 20.3185 10.6654 20.6074 11.2936C20.8963 11.9217 20.8963 12.6363 20.8963 14.0656V18.5292C20.8963 20.5141 20.8963 21.5066 20.2797 22.1232C19.6631 22.7399 18.6706 22.7399 16.6857 22.7399H10.3698C8.38489 22.7399 7.39244 22.7399 6.77581 22.1232C6.15918 21.5066 6.15918 20.5141 6.15918 18.5292V14.0656Z" stroke="#274C77" stroke-width="1.68424"/>
<path d="M16.1594 22.7399V17.2661C16.1594 16.801 15.7824 16.424 15.3173 16.424H11.7382C11.2731 16.424 10.8961 16.801 10.8961 17.2661V22.7399" stroke="#274C77" stroke-width="1.68424" stroke-linecap="round" stroke-linejoin="round"/>
</svg>
