<svg width="99" height="68" viewBox="0 0 99 68" fill="none" xmlns="http://www.w3.org/2000/svg">
<mask id="mask0_2206_321" style="mask-type:luminance" maskUnits="userSpaceOnUse" x="36" y="0" width="27" height="43">
<path d="M36.2593 0.516663H62.5642V42.8889H36.2593V0.516663Z" fill="white"/>
</mask>
<g mask="url(#mask0_2206_321)">
<path fill-rule="evenodd" clip-rule="evenodd" d="M56.2894 39.7132C56.1611 39.7132 56.0384 39.6875 55.9266 39.6417L53.8054 42.6319L53.7385 42.7264L53.6247 42.7153L48.125 42.2125L48.0346 42.1812L43.1417 39.0382C42.9997 39.1194 42.8342 39.1681 42.6597 39.1681C42.1301 39.1681 41.6997 38.7347 41.6997 38.2014V15.8681H37.3937C37.0103 15.8681 36.6648 15.6396 36.5131 15.284C36.3614 14.9306 36.4324 14.5208 36.6952 14.2382L49.258 0.8243C49.4442 0.627078 49.7049 0.515272 49.9759 0.520828C50.2462 0.526383 50.5014 0.646522 50.68 0.853466L62.2788 14.2674C62.5263 14.5535 62.5843 14.9576 62.4284 15.3014C62.2732 15.6472 61.9312 15.8681 61.5553 15.8681H57.2493V38.7465C57.2493 39.2799 56.8197 39.7132 56.2894 39.7132Z" fill="#FCCC32"/>
</g>
<mask id="mask1_2206_321" style="mask-type:luminance" maskUnits="userSpaceOnUse" x="0" y="35" width="99" height="33">
<path d="M0.330688 35.6H98.7094V67.45H0.330688V35.6Z" fill="white"/>
</mask>
<g mask="url(#mask1_2206_321)">
<path fill-rule="evenodd" clip-rule="evenodd" d="M5.80902 67.4451H1.29406C0.764431 67.4451 0.334106 67.0125 0.334106 66.4791V42.2722C0.334106 41.9923 0.45548 41.7271 0.664435 41.5437C0.87546 41.3597 1.15407 41.2771 1.43061 41.3153C1.43198 41.3153 1.83541 41.3715 2.44021 41.3715C3.21742 41.3715 4.37115 41.2826 5.46007 40.8535C5.75522 40.7375 6.08762 40.7743 6.35037 40.9562C6.61173 41.1354 6.76897 41.4333 6.76897 41.7542V66.4791C6.76897 67.0125 6.33933 67.4458 5.80902 67.4458V67.4451ZM97.6549 67.4451H16.9126C16.383 67.4451 15.9527 67.0125 15.9527 66.4791V41.5646C15.9527 41.2632 16.0933 40.9792 16.3326 40.7958C16.5713 40.6139 16.8823 40.5542 17.1698 40.6347C17.9222 40.8458 18.6484 40.9521 19.3297 40.9521C21.5448 40.9521 23.3516 39.8618 24.8522 37.6215C25.0102 37.3854 25.2653 37.2305 25.5453 37.2C25.8281 37.1687 26.108 37.266 26.3115 37.4625C26.348 37.4993 30.1451 41.093 34.2876 41.093C36.9061 41.093 39.1488 39.6243 40.9549 36.7264C41.1197 36.4611 41.4025 36.293 41.7135 36.2757C42.0224 36.2583 42.3217 36.3917 42.5176 36.6375C42.5486 36.6757 45.8119 40.6986 49.9855 40.6986C52.5516 40.6986 54.9997 39.1715 57.261 36.1618C57.4603 35.8951 57.7831 35.7521 58.1113 35.7812C58.4417 35.8097 58.7313 36.009 58.883 36.3048C58.9058 36.3535 61.4167 41.1646 65.9689 41.1625C68.3819 41.1625 71.0059 39.8444 73.7719 37.2423C74.1581 36.8812 74.7609 36.8986 75.1236 37.2847C75.156 37.3194 78.5097 40.8187 82.2936 40.8187C84.7928 40.8187 86.9837 39.2569 88.8071 36.1771C88.9995 35.8528 89.3622 35.6687 89.736 35.7111C90.1105 35.7542 90.4256 36.0111 90.5429 36.3722C90.5601 36.4229 92.309 41.6444 95.5571 41.6444C96.0909 41.6444 96.6584 41.5014 97.2446 41.2208C97.5418 41.0798 97.8894 41.1007 98.1673 41.2785C98.4459 41.4569 98.6149 41.7639 98.6149 42.0944V66.4791C98.6149 67.0125 98.1853 67.4451 97.6549 67.4451Z" fill="#62DBFB"/>
</g>
<mask id="mask2_2206_321" style="mask-type:luminance" maskUnits="userSpaceOnUse" x="0" y="45" width="99" height="9">
<path d="M0.330688 45.3777H98.7094V53.3777H0.330688V45.3777Z" fill="white"/>
</mask>
<g mask="url(#mask2_2206_321)">
<path fill-rule="evenodd" clip-rule="evenodd" d="M0.334106 52.9125V50.9638C0.766499 51.018 1.6106 51.1263 1.76438 51.1375C2.43814 51.184 4.01048 51.2131 5.46007 50.643C5.95315 50.4493 6.50967 50.6951 6.70208 51.1916C6.74759 51.3076 6.76897 51.4277 6.76897 51.5458C6.7669 51.9305 6.53657 52.2937 6.15865 52.4423C4.80699 52.9763 3.4112 53.0937 2.44021 53.0937C2.13471 53.0937 1.87196 53.0826 1.66439 53.0687C1.48026 53.0555 0.816152 52.9743 0.334106 52.9125ZM95.4454 53.2562C94.8006 53.2562 94.1689 53.1284 93.5524 52.8715C91.5428 52.0326 90.1974 49.9777 89.4464 48.4798C87.6575 50.8784 85.5514 52.2256 83.1632 52.493C79.2724 52.9277 75.8284 50.3201 74.4112 49.0555C70.9769 52.0694 67.6481 53.3145 64.5096 52.7597C61.1884 52.1701 58.994 49.7131 57.9251 48.1937C55.539 50.9618 52.9109 52.3826 50.1007 52.4194C46.3167 52.4736 43.2934 49.9916 41.8804 48.5784C40.0736 51.0333 37.8895 52.4347 35.3724 52.75C35.0076 52.7944 34.6428 52.8159 34.2842 52.8159C30.583 52.8173 27.2866 50.5555 25.8067 49.3611C23.4509 52.2972 20.3069 53.3104 16.6554 52.2881C16.2444 52.1722 15.9699 51.8027 15.9527 51.3951V51.3138C15.9568 51.2423 15.9685 51.1687 15.9871 51.0972C16.1292 50.5826 16.6595 50.2812 17.1698 50.4243C20.3793 51.3236 22.8923 50.3375 24.8522 47.4104C25.0102 47.175 25.2633 47.0201 25.5453 46.9909C25.826 46.9604 26.106 47.0569 26.3115 47.252C26.3535 47.293 30.6885 51.3951 35.1442 50.8305C37.3923 50.5458 39.346 49.0944 40.9528 46.5152C41.1183 46.2506 41.4025 46.0826 41.7114 46.0652C42.0224 46.05 42.3217 46.1812 42.5155 46.4263C42.5486 46.4652 45.8119 50.4881 49.9855 50.4881C50.0179 50.4881 50.0503 50.4881 50.0834 50.4881C52.613 50.4493 55.028 48.9222 57.261 45.9513C57.4603 45.6861 57.781 45.5416 58.1113 45.5722C58.4396 45.6013 58.7313 45.7986 58.8809 46.0958C58.9023 46.1347 61.0119 50.1847 64.8551 50.8576C67.5695 51.3312 70.568 50.0458 73.7719 47.0319C74.1561 46.6701 74.7609 46.6895 75.1236 47.0743C75.1602 47.1131 78.9151 51.0291 82.9598 50.5715C85.1811 50.3201 87.1465 48.7715 88.8071 45.9687C88.9995 45.6416 89.3622 45.4604 89.736 45.5027C90.1105 45.543 90.4256 45.802 90.5429 46.1618C90.556 46.2006 91.8497 50.0722 94.2916 51.0875C95.0406 51.3986 95.8219 51.4006 96.6646 51.0895C96.7895 51.0451 97.8818 50.6 98.6149 50.2951V52.3868C97.8032 52.7111 96.9336 53.0416 96.6798 53.1034C96.2633 53.2062 95.8523 53.2562 95.4454 53.2562Z" fill="#5CC8E5"/>
</g>
<mask id="mask3_2206_321" style="mask-type:luminance" maskUnits="userSpaceOnUse" x="0" y="55" width="99" height="9">
<path d="M0.330688 55.1556H98.7094V63.1556H0.330688V55.1556Z" fill="white"/>
</mask>
<g mask="url(#mask3_2206_321)">
<path fill-rule="evenodd" clip-rule="evenodd" d="M0.334106 62.7271V60.782C0.860288 60.8382 1.8161 60.9348 2.11402 60.9445C2.89329 60.9695 4.22151 60.9216 5.458 60.4341C5.95315 60.2389 6.50967 60.4841 6.70208 60.9813C6.89586 61.4778 6.65173 62.0382 6.15865 62.2341C4.80699 62.7653 3.4112 62.8834 2.43814 62.8834C2.34229 62.8834 2.24988 62.8834 2.16367 62.8813C1.79542 62.8716 0.931319 62.7889 0.334106 62.7264V62.7271ZM95.4454 63.048C94.8006 63.048 94.1689 62.9181 93.5524 62.6612C91.5428 61.8223 90.1974 59.7674 89.4464 58.2709C87.6575 60.6681 85.5514 62.0153 83.1653 62.282C79.2724 62.7174 75.8284 60.1091 74.4112 58.8452C70.9769 61.8591 67.6481 63.1035 64.5096 62.5487C61.1884 61.9591 58.994 59.5021 57.9251 57.9827C55.539 60.7514 52.9109 62.1723 50.1007 62.2084C50.0621 62.2105 50.0234 62.2105 49.9855 62.2105C46.2588 62.2105 43.2796 59.7674 41.8804 58.3674C40.0736 60.823 37.8895 62.2244 35.3724 62.5389C31.2395 63.0577 27.4307 60.4612 25.8067 59.1521C23.4509 62.0889 20.3069 63.1 16.6554 62.0771C16.2444 61.9612 15.9699 61.5917 15.9527 61.1841V61.1028C15.9568 61.0313 15.9685 60.9577 15.9871 60.8862C16.1313 60.3723 16.6595 60.0709 17.1698 60.2139C20.3793 61.1125 22.8923 60.1264 24.8522 57.2C25.0102 56.9639 25.2633 56.8112 25.5453 56.7806C25.826 56.7494 26.106 56.8466 26.3115 57.0431C26.3535 57.0841 30.6885 61.182 35.1442 60.6195C37.3923 60.3355 39.346 58.8841 40.9549 56.3049C41.1197 56.0403 41.4025 55.8723 41.7114 55.8542C42.0224 55.8369 42.3217 55.9702 42.5176 56.216C42.5486 56.2549 45.814 60.2778 49.9869 60.2778C50.02 60.2778 50.0524 60.2778 50.0848 60.2757C52.613 60.2389 55.028 58.7119 57.261 55.7403C57.4603 55.4737 57.7851 55.3306 58.1113 55.3598C58.4417 55.3903 58.7313 55.5875 58.883 55.8855C58.9023 55.9244 61.0119 59.9744 64.8551 60.6466C67.5695 61.1223 70.57 59.8348 73.7719 56.8209C74.1581 56.4598 74.7609 56.4771 75.1236 56.8639C75.1602 56.9021 78.9151 60.8188 82.9619 60.3605C85.1811 60.1091 87.1465 58.5612 88.8071 55.7577C88.9995 55.4313 89.3622 55.2494 89.736 55.2917C90.1105 55.3348 90.4256 55.5917 90.5429 55.9514C90.556 55.9896 91.8497 59.8619 94.2916 60.8771C94.9813 61.1625 95.695 61.1882 96.4633 60.9487C96.6646 60.8848 97.9984 60.3299 98.6149 60.0591V62.1605C97.8722 62.4695 97.0198 62.8063 96.7584 62.8737C96.315 62.9896 95.8778 63.048 95.4454 63.048Z" fill="#5CC8E5"/>
</g>
<mask id="mask4_2206_321" style="mask-type:luminance" maskUnits="userSpaceOnUse" x="4" y="11" width="14" height="57">
<path d="M4.83459 11.4222H17.8988V67.45H4.83459V11.4222Z" fill="white"/>
</mask>
<g mask="url(#mask4_2206_321)">
<path fill-rule="evenodd" clip-rule="evenodd" d="M16.9127 67.4452H5.80907C5.27945 67.4452 4.84912 67.0125 4.84912 66.4792V12.5104C4.84912 11.9764 5.27738 11.5438 5.80907 11.5438H16.9127C17.4444 11.5438 17.8726 11.9764 17.8726 12.5104V66.4792C17.8726 67.0125 17.4423 67.4452 16.9127 67.4452Z" fill="#FAA940"/>
</g>
<path fill-rule="evenodd" clip-rule="evenodd" d="M4.84912 19.6764V17.743H11.2398C11.7702 17.743 12.1998 18.1764 12.1998 18.7097C12.1998 19.243 11.7702 19.6764 11.2398 19.6764H4.84912Z" fill="#606062"/>
<path fill-rule="evenodd" clip-rule="evenodd" d="M4.84912 26.2389V24.3063H9.42959C9.95991 24.3063 10.3895 24.7389 10.3895 25.2722C10.3895 25.8063 9.95991 26.2389 9.42959 26.2389H4.84912Z" fill="#606062"/>
<path fill-rule="evenodd" clip-rule="evenodd" d="M4.84912 32.8042V30.8708H11.2398C11.7702 30.8708 12.1998 31.3021 12.1998 31.8375C12.1998 32.3708 11.7702 32.8042 11.2398 32.8042H4.84912Z" fill="#606062"/>
<path fill-rule="evenodd" clip-rule="evenodd" d="M4.84912 39.3667V37.434H9.42959C9.95991 37.434 10.3895 37.8667 10.3895 38.4007C10.3895 38.934 9.95991 39.3667 9.42959 39.3667H4.84912Z" fill="#606062"/>
<path fill-rule="evenodd" clip-rule="evenodd" d="M4.84912 45.9319V43.9986H11.2398C11.7702 43.9986 12.1998 44.4319 12.1998 44.9653C12.1998 45.4986 11.7702 45.9319 11.2398 45.9319H4.84912Z" fill="#606062"/>
<path fill-rule="evenodd" clip-rule="evenodd" d="M4.84912 52.4945V50.5618H9.42959C9.95991 50.5618 10.3895 50.9945 10.3895 51.5285C10.3895 52.0618 9.95991 52.4945 9.42959 52.4945H4.84912Z" fill="#606062"/>
<path fill-rule="evenodd" clip-rule="evenodd" d="M4.84912 59.0577V57.1264H11.2398C11.7702 57.1264 12.1998 57.5577 12.1998 58.0931C12.1998 58.6264 11.7702 59.0577 11.2398 59.0577H4.84912Z" fill="#606062"/>
</svg>
