<svg width="78" height="60" viewBox="0 0 78 60" fill="none" xmlns="http://www.w3.org/2000/svg">
<path d="M46.2056 1.8982L46.4051 1.63401C46.7251 1.21051 47.51 0.499634 49.1699 0.499634C49.2666 0.499634 49.3666 0.502155 49.4694 0.507196L49.6156 0.514255L51.5344 2.66604L51.5526 2.69528C51.5811 2.74066 51.6157 2.79158 51.646 2.83141L51.6783 2.82838L52.7369 4.01469L49.2129 5.46367L46.2056 1.8982ZM49.218 3.43692L50.0963 3.05375L49.1199 1.96021L48.2995 2.32321L49.218 3.43692ZM58.2619 15.9972L61.6337 14.337L65.1619 18.1742L64.919 18.4515C64.0364 19.4634 62.6209 19.7941 62.0532 19.8889L61.8682 19.9202L58.2619 15.9972ZM62.5157 18.6275L63.3945 18.2453L62.4181 17.1528L61.5958 17.5148L62.5157 18.6275Z" fill="#F6921E"/>
<path d="M62.5208 43.5529C62.8488 42.6878 63.0375 41.7455 63.1515 40.4019L63.1721 40.1639L68.4752 37.8014L68.2276 38.6181C67.4698 41.1163 66.2013 42.4866 65.8304 42.8471L65.7809 42.8955L62.197 44.4075L62.5208 43.5529ZM63.4057 33.5714L68.8363 31.1247L68.8914 31.0596C69.2783 30.5978 71.0167 27.7891 67.1955 17.7799L67.1698 17.7108L54.7789 3.74685L54.7677 3.72365L54.742 3.69088C54.6379 3.5593 54.0427 2.89934 52.5476 2.81464L51.6184 2.76221L52.7387 4.01456L52.9648 3.92179C53.0148 3.90112 53.0672 3.88852 53.1209 3.88448C53.1746 3.88045 53.2279 3.88448 53.2802 3.89709C53.333 3.9102 53.3825 3.93087 53.4297 3.9591C53.4764 3.98784 53.5185 4.02313 53.5558 4.06548L62.1746 13.7586C62.2223 13.8105 62.2395 13.8731 62.226 13.9452C62.2134 14.0178 62.176 14.0697 62.1134 14.1004L61.6345 14.3359L65.1469 18.1575C64.1228 19.6725 61.9578 19.9084 61.8658 19.9175H61.8649L58.2633 15.9981L58.0311 16.1126C57.9736 16.1408 57.9138 16.1549 57.8512 16.1549C57.726 16.1554 57.6213 16.106 57.5363 16.0067L48.7106 5.67125L49.2151 5.46505L48.1243 4.17287L46.3391 4.90593L59.2775 19.5414L59.3107 19.6014C59.3621 19.6927 59.5476 20.0451 59.8041 20.5669C59.8083 20.575 60.2054 21.3489 60.6062 22.3184C61.7625 25.0021 63.1819 29.0349 63.3781 33.0098L63.4057 33.5714ZM63.2487 38.845L68.6957 36.4194L68.7214 36.188C68.8335 35.1268 68.841 34.065 68.7443 33.0022L68.6971 32.4673L63.3828 34.8676L63.3739 35.1197C63.3613 35.4787 63.3501 35.8225 63.3403 36.1517L63.329 36.5177C63.3104 37.1338 63.2926 37.7005 63.273 38.2279L63.2487 38.845Z" fill="#283A92"/>
<path d="M60.693 37.3281L62.2488 35.8368L62.2203 36.7579C62.1964 37.5313 62.1726 38.2135 62.1469 38.8185L62.1315 39.1774L60.7748 39.2515L60.693 37.3281ZM22.1772 56L22.4313 55.5094C23.2125 55.2261 25.277 53.761 25.9572 49.1559C27.0178 41.9831 23.298 35.2449 22.8705 34.4998L22.8326 34.4347L22.7752 34.3894C22.28 33.9971 21.8286 33.5529 21.4217 33.0558L13.7004 23.6077C13.5206 23.3884 13.3617 23.152 13.2244 22.8994C13.0865 22.6463 12.9735 22.3816 12.8838 22.1048C12.7941 21.828 12.7305 21.5442 12.6922 21.2543C12.6539 20.9639 12.6422 20.6725 12.6567 20.3795L12.7081 19.2825L12.0195 20.0917C10.2273 22.1976 9.3476 24.8475 9.4074 27.9663C9.49243 32.4448 9.90169 35.8857 10.695 38.7963L10.8127 39.2289L11.7046 38.8028L11.6476 38.4928C11.5756 38.1177 11.5233 37.739 11.4906 37.3574C11.385 35.9649 11.6607 35.0286 12.2872 34.648L12.3171 34.6298L14.5503 32.6091L14.5722 32.5814C14.6386 32.4922 14.7128 32.412 14.796 32.3409C14.8792 32.2698 14.9684 32.2098 15.0642 32.1604C15.1599 32.111 15.2595 32.0737 15.3627 32.049C15.4664 32.0238 15.5711 32.0117 15.6771 32.0122C16.3611 32.0122 17.1633 32.5234 17.9972 33.4914C18.9409 34.587 19.8678 36.1852 20.6069 37.9921C21.346 39.7991 21.816 41.6146 21.93 43.1064C22.0613 44.8281 21.7062 45.9408 20.9027 46.3225C20.7387 46.4001 20.5672 46.4435 20.3888 46.4521C20.371 46.4521 20.3528 46.4521 20.3346 46.4521C20.2341 46.4511 20.1346 46.441 20.036 46.4223L19.9954 46.4148L17.181 46.5811L17.1394 46.5942C17.0371 46.6275 16.9329 46.6472 16.8264 46.6532C16.8087 46.6532 16.7909 46.6532 16.7727 46.6532C16.1794 46.6532 15.4907 46.2181 14.7815 45.3938C14.5124 45.0777 14.2643 44.7445 14.0363 44.3931L13.8625 44.1294L13.0795 44.502L13.3187 44.8932C13.7457 45.592 14.2134 46.2796 14.7082 46.9376C16.8259 49.7488 19.7529 53.2014 21.8357 55.6027L22.1772 56Z" fill="#808184"/>
<path d="M16.8142 42.179C17.194 43.7152 17.1618 44.7528 17.0198 45.1733L16.889 45.561L16.5367 45.4057C16.1615 45.2393 15.6317 44.7084 15.1188 43.9829L14.8898 43.6598L15.1959 43.4218C15.4038 43.26 15.5864 43.0694 15.7439 42.8506C15.9013 42.6318 16.0265 42.3933 16.1204 42.1357L16.5292 41.0189L16.8142 42.179ZM12.723 38.3L13.0949 38.2208C13.2668 38.1845 13.4401 38.1659 13.6153 38.1654C13.934 38.1654 14.2428 38.2248 14.5418 38.3438L15.593 38.7618L14.9744 37.754C14.2096 36.5076 13.5303 35.8845 13.15 35.7166L12.7964 35.5608L12.6665 35.9485C12.538 36.3352 12.5361 37.0632 12.6627 37.8961L12.723 38.3ZM62.3001 34.1945V34.0186C62.3277 29.9958 60.834 25.6756 59.5764 22.76L59.4269 22.4136L31.0435 35.4146C29.99 35.8996 28.8902 36.1416 27.7451 36.1411C27.1906 36.1391 26.6416 36.0796 26.0983 35.9626L25.3718 35.8074L25.6979 36.5253C26.8766 39.1187 28.1577 43.268 27.5685 48.3037C27.1551 51.8283 26.1903 54.0648 24.7023 54.9521C24.5318 55.055 24.3533 55.1387 24.1674 55.2032C23.9814 55.2672 23.7913 55.3116 23.5974 55.3348C23.403 55.358 23.2087 55.3605 23.0139 55.3418C22.8195 55.3232 22.6284 55.2839 22.4411 55.2239L21.096 54.7963L22.0748 55.8798C23.5395 57.5007 25.4918 58.3936 27.5732 58.3936C28.545 58.3931 29.4831 58.2015 30.3876 57.8178L60.3243 45.195L60.3869 45.1072C61.4003 43.6794 61.8086 42.6015 62.0039 40.8359L62.0553 40.3706L60.0165 40.4795C59.9767 40.4795 59.9389 40.4714 59.902 40.4558C59.8656 40.4402 59.8329 40.4175 59.8044 40.3877C59.7759 40.3585 59.7534 40.3242 59.7371 40.2854C59.7207 40.2466 59.7118 40.2062 59.7104 40.1634L59.5764 36.975C59.5726 36.8707 59.6063 36.7829 59.6777 36.7123L62.3001 34.1945ZM22.2472 32.2721C22.8536 33.0118 23.5628 33.6092 24.3748 34.0645L24.4281 34.0922C24.6654 34.2223 24.9088 34.3382 25.1583 34.4401C25.4078 34.5414 25.6614 34.6281 25.9193 34.7002C26.1772 34.7718 26.4384 34.8283 26.7023 34.8691C26.9658 34.9099 27.2312 34.9357 27.4975 34.9452C27.7638 34.9548 28.0296 34.9493 28.2955 34.9276C28.5613 34.9059 28.8253 34.8691 29.0874 34.8162C29.349 34.7637 29.6078 34.6957 29.8629 34.6125C30.118 34.5298 30.3684 34.432 30.6137 34.3191L58.9368 21.3488L58.7513 20.9687C58.6144 20.6869 58.5051 20.4766 58.4397 20.3496L58.3944 20.2624L45.2251 5.3642L15.749 17.4778C14.7843 17.8726 14.0886 18.7211 13.8415 19.8041C13.5939 20.8875 13.8415 21.9836 14.5254 22.823L22.2472 32.2721ZM61.7441 13.8463L53.2081 4.24646L49.3504 5.83156L57.8365 15.7748L61.7441 13.8463ZM15.8018 33.2109L15.6322 33.1771L13.8849 34.7577L14.2447 35.0577C15.2244 35.8724 16.2466 37.4575 17.0558 39.4132V39.4147L17.0871 39.4913C17.9191 41.5196 18.3335 43.5302 18.1952 44.8703L18.148 45.3356L20.5644 45.1909L20.6625 44.9968C20.8167 44.6938 20.8489 44.1801 20.8489 43.8045C20.8489 43.1203 20.727 41.2312 19.5982 38.4699C18.2298 35.1242 16.5236 33.3536 15.8018 33.2109ZM15.0721 40.3736C15.0094 40.2214 14.9282 40.0817 14.8282 39.9552C14.7282 39.8286 14.6133 39.7197 14.4839 39.629C14.3549 39.5382 14.2162 39.4691 14.0681 39.4217C13.9204 39.3749 13.7691 39.3512 13.6149 39.3512C13.5934 39.3512 13.5714 39.3512 13.5513 39.3512C13.3495 39.3587 13.1556 39.4066 12.9711 39.4953L2.47654 44.5093C2.37936 44.5537 2.28686 44.6081 2.19949 44.6726C2.11213 44.7367 2.03177 44.8098 1.95795 44.8915C1.88414 44.9731 1.81826 45.0614 1.7608 45.1572C1.70333 45.2529 1.65521 45.3538 1.61597 45.4602C1.57719 45.566 1.54822 45.6754 1.52954 45.7874C1.51085 45.8998 1.50244 46.0127 1.50478 46.1267C1.50664 46.2411 1.51926 46.3535 1.54215 46.465C1.56504 46.5764 1.59775 46.6843 1.64073 46.7886C1.68371 46.893 1.73557 46.9918 1.7963 47.0846C1.85751 47.1779 1.92618 47.2636 2.00327 47.3422C2.07989 47.4204 2.16305 47.4899 2.25275 47.5504C2.34245 47.6109 2.43683 47.6609 2.53587 47.7012C2.63445 47.7415 2.7363 47.7708 2.84048 47.7894C2.94466 47.8076 3.04978 47.8146 3.15537 47.8106C3.26095 47.8066 3.36514 47.7909 3.46792 47.7647C3.5707 47.738 3.67021 47.7007 3.76646 47.6528L14.261 42.6409C14.3568 42.595 14.4474 42.5395 14.5329 42.4745C14.6179 42.4094 14.6969 42.3363 14.7688 42.2547C14.8413 42.173 14.9048 42.0843 14.9609 41.989C15.0169 41.8937 15.0636 41.7933 15.1015 41.688C15.1389 41.5831 15.1669 41.4747 15.1846 41.3638C15.2024 41.2524 15.2103 41.1404 15.2075 41.028C15.2052 40.9151 15.1926 40.8037 15.1697 40.6938C15.1468 40.5833 15.1141 40.477 15.0721 40.3736ZM68.2316 17.3891L74.7863 14.1876C74.8797 14.1458 74.9676 14.0944 75.0512 14.0334C75.1348 13.9719 75.2119 13.9028 75.282 13.8246C75.3525 13.747 75.4156 13.6623 75.4703 13.571C75.5249 13.4798 75.5712 13.3835 75.6081 13.2822C75.645 13.1808 75.6721 13.0765 75.6894 12.9696C75.7071 12.8622 75.7146 12.7543 75.7123 12.6454C75.7095 12.5365 75.6968 12.4291 75.6744 12.3232C75.652 12.2168 75.6198 12.1145 75.5782 12.0152C75.5366 11.9164 75.4866 11.8226 75.4273 11.7344C75.3684 11.6461 75.3021 11.565 75.2278 11.4908C75.154 11.4172 75.0736 11.3517 74.9872 11.2952C74.9012 11.2388 74.8106 11.1924 74.7157 11.1551C74.6209 11.1183 74.5237 11.092 74.4237 11.0764C74.3242 11.0603 74.2238 11.0552 74.1229 11.0613C74.0224 11.0668 73.9234 11.0835 73.8257 11.1112C73.7281 11.1384 73.6337 11.1757 73.5431 11.2236L66.1432 14.835L68.104 17.0463L68.2316 17.3891Z" fill="#BBBDBF"/>
<mask id="mask0_2204_239" style="mask-type:luminance" maskUnits="userSpaceOnUse" x="0" y="0" width="78" height="60">
<path d="M0 0H77.1429V60H0V0Z" fill="white"/>
</mask>
<g mask="url(#mask0_2204_239)">
<path d="M62.2995 18.9623L61.2068 17.6364C61.1937 17.6207 61.1829 17.6041 61.1736 17.5854C61.1643 17.5673 61.1572 17.5476 61.1526 17.5275C61.1474 17.5073 61.1451 17.4866 61.1446 17.4659C61.1442 17.4448 61.1465 17.4241 61.1507 17.4039C61.1549 17.3833 61.1614 17.3636 61.1703 17.3449C61.1787 17.3263 61.1895 17.3091 61.2021 17.293C61.2147 17.2774 61.2287 17.2633 61.2446 17.2507C61.26 17.2386 61.2768 17.2285 61.2951 17.2204L62.3584 16.7515C62.4046 16.7304 62.4523 16.7258 62.5009 16.7369C62.5499 16.748 62.5915 16.7732 62.6261 16.8125L63.7866 18.1128C63.8006 18.1284 63.8123 18.1456 63.8221 18.1637C63.8319 18.1824 63.8399 18.202 63.845 18.2227C63.8506 18.2434 63.8539 18.2645 63.8543 18.2857C63.8553 18.3074 63.8534 18.3286 63.8492 18.3497C63.845 18.3704 63.8385 18.3906 63.8296 18.4102C63.8212 18.4294 63.8104 18.4471 63.7974 18.4637C63.7847 18.4798 63.7703 18.4944 63.7544 18.507C63.738 18.5197 63.7207 18.5302 63.7025 18.5383L62.5719 19.0309C62.5243 19.0515 62.4757 19.0551 62.4257 19.0425C62.3757 19.0299 62.3336 19.0031 62.2995 18.9623ZM50.4894 2.92272L49.3289 1.62096C49.2943 1.58264 49.2527 1.55794 49.2037 1.54634C49.1551 1.53525 49.1074 1.53979 49.0612 1.55945L47.9997 2.02883C47.9815 2.03639 47.9651 2.04698 47.9492 2.05908C47.9334 2.07118 47.9193 2.0853 47.9067 2.10143C47.8941 2.11706 47.8838 2.13471 47.875 2.15336C47.8661 2.17201 47.8595 2.19117 47.8553 2.21184C47.8507 2.23201 47.8488 2.25268 47.8488 2.27335C47.8493 2.29453 47.8516 2.3152 47.8563 2.33536C47.8609 2.35553 47.868 2.37469 47.8768 2.39334C47.8862 2.412 47.8969 2.42914 47.9095 2.44477L49.0028 3.76871C49.0369 3.81006 49.0789 3.83728 49.1289 3.84988C49.1794 3.86249 49.2279 3.85846 49.2756 3.83778L50.4062 3.34471C50.4244 3.33664 50.4417 3.32656 50.4576 3.31395C50.4735 3.30135 50.488 3.28723 50.5006 3.2706C50.5132 3.25446 50.5235 3.23682 50.5323 3.21766C50.5408 3.1985 50.5473 3.17833 50.5515 3.15766C50.5557 3.13699 50.5571 3.11582 50.5566 3.09464C50.5557 3.07347 50.5529 3.05229 50.5473 3.03212C50.5422 3.01145 50.5347 2.9923 50.5249 2.97364C50.5151 2.95499 50.5034 2.93835 50.4894 2.92272ZM76.8769 11.3816C76.2004 9.76932 74.433 9.05088 72.9384 9.7794L65.4204 13.4518L55.9224 2.74475C55.614 2.32175 54.304 0.859665 51.0598 1.30333L50.8818 1.36182L49.7858 0.13316L49.6442 0.123076C46.7154 -0.0906909 45.9277 1.68448 45.895 1.7591L45.7945 1.99707L46.6939 3.06742L15.2317 15.9963L14.9897 15.9625L14.7734 16.0538C14.7001 16.085 12.971 16.8251 11.2732 18.6633C9.70578 20.3614 7.85383 23.3587 7.94166 27.999C8.02202 32.2728 8.35279 36.0168 9.34791 39.4971L1.88451 43.0625C1.79294 43.1064 1.7037 43.1548 1.61634 43.2082C1.52897 43.2612 1.44441 43.3192 1.36265 43.3812C1.28089 43.4437 1.20194 43.5097 1.12579 43.5803C1.0501 43.6509 0.977219 43.7255 0.908074 43.8037C0.83893 43.8818 0.773523 43.9635 0.711853 44.0487C0.650184 44.1339 0.592719 44.2221 0.538992 44.3139C0.485265 44.4051 0.435742 44.4989 0.390892 44.5952C0.345574 44.692 0.304928 44.7908 0.268955 44.8917C0.232981 44.9925 0.201212 45.0948 0.174582 45.1992C0.147952 45.3031 0.125527 45.4084 0.108708 45.5153C0.0914215 45.6217 0.0788073 45.7286 0.0713322 45.8365C0.0638571 45.9444 0.0615212 46.0523 0.0638571 46.1606C0.066193 46.2685 0.0736681 46.3764 0.0858151 46.4838C0.0979621 46.5907 0.114781 46.6976 0.136739 46.803C0.158697 46.9083 0.185327 47.0127 0.216629 47.115C0.247931 47.2179 0.283905 47.3187 0.324083 47.4175C0.364729 47.5164 0.410047 47.6132 0.459102 47.7069C0.508624 47.8012 0.562352 47.8925 0.619816 47.9807C0.677748 48.0694 0.738951 48.1546 0.804825 48.2363C0.870232 48.3185 0.938909 48.3966 1.01179 48.4712C1.08421 48.5459 1.15989 48.6165 1.23885 48.683C1.3178 48.7495 1.39956 48.8116 1.48459 48.8695C1.56915 48.9275 1.65605 48.981 1.74575 49.0294C1.83498 49.0783 1.92655 49.1221 2.01999 49.1609C2.11343 49.1998 2.20874 49.2341 2.30498 49.2628C2.40169 49.292 2.49933 49.3157 2.59791 49.3339C2.69696 49.3525 2.796 49.3661 2.89598 49.3742C2.99596 49.3823 3.09594 49.3848 3.19638 49.3823C3.29636 49.3798 3.39634 49.3722 3.49585 49.3586C3.59537 49.3455 3.69394 49.3273 3.79159 49.3036C3.8897 49.2804 3.98594 49.2517 4.08125 49.2179C4.17655 49.1841 4.26999 49.1453 4.36156 49.1015L11.9231 45.4886C12.43 46.3381 12.9789 47.1544 13.5699 47.9378C15.741 50.8217 18.7553 54.373 20.9007 56.8425C22.6732 58.8858 25.09 59.9784 27.5694 59.9784C28.728 59.9779 29.8465 59.749 30.9247 59.2917L66.4006 44.3351L66.5309 44.2796L66.6393 44.1843C66.8262 44.024 71.0435 40.2725 70.1521 32.356L70.1007 32.0414L70.2072 31.8135C70.5357 31.3094 70.901 30.4699 71.0342 29.1243C71.293 26.5541 70.6436 23.0521 69.1107 18.6991L75.3912 15.6323C75.5211 15.5688 75.6463 15.4957 75.7664 15.4125C75.8864 15.3298 76.0004 15.238 76.1083 15.1377C76.2163 15.0369 76.3167 14.9285 76.4101 14.8125C76.5041 14.696 76.5891 14.5735 76.6662 14.444C76.7437 14.3149 76.8119 14.1803 76.8708 14.0401C76.9301 13.9 76.9801 13.7563 77.0198 13.6086C77.06 13.4613 77.0904 13.3111 77.1105 13.1588C77.1306 13.0066 77.1408 12.8533 77.1404 12.6995C77.1408 12.2397 77.0525 11.8006 76.8764 11.3816H76.8769ZM57.9266 15.296L49.9871 5.99411L53.1117 4.70949L61.1227 13.719L57.9266 15.296ZM61.5534 14.813L64.6518 18.1834C63.8361 19.1191 62.4701 19.4216 61.9973 19.5013L58.8928 16.1228L61.5534 14.813ZM46.6906 1.88413C46.9653 1.52013 47.7264 0.817819 49.4536 0.90252L51.249 2.91516C51.249 2.91516 51.4546 3.24791 51.5368 3.23934L52.0895 3.85896L49.3172 4.99838L46.6906 1.88413ZM14.1978 19.9001C14.416 18.9442 15.0285 18.1965 15.8793 17.8481L45.1283 5.82773L58.0971 20.4995C58.1574 20.6165 58.2751 20.8398 58.427 21.1524L30.4706 33.9568C30.238 34.0636 30.0002 34.1564 29.7577 34.2356C29.5152 34.3142 29.2695 34.3788 29.0209 34.4287C28.7719 34.4791 28.521 34.5139 28.2687 34.5345C28.016 34.5552 27.7632 34.5608 27.5105 34.5512C27.2573 34.5421 27.0055 34.5179 26.755 34.4791C26.5042 34.4403 26.2565 34.3863 26.0113 34.3183C25.766 34.2502 25.5249 34.168 25.2881 34.0712C25.0512 33.9749 24.8199 33.865 24.5943 33.741C24.5929 33.739 24.5915 33.7369 24.5905 33.7349L24.5868 33.7369C23.7977 33.3018 23.1095 32.7261 22.5223 32.0097L14.801 22.5611C14.1997 21.8235 13.9778 20.8539 14.1978 19.9001ZM3.61826 47.291C3.54444 47.3263 3.46829 47.3535 3.3898 47.3727C3.31131 47.3918 3.23189 47.4024 3.15107 47.4044C3.07071 47.4064 2.99082 47.3999 2.9114 47.3853C2.83197 47.3701 2.75489 47.347 2.67967 47.3157C2.60492 47.2844 2.53297 47.2456 2.46523 47.1987C2.39702 47.1523 2.33395 47.0989 2.27601 47.0389C2.21762 46.9789 2.16529 46.9134 2.11904 46.8423C2.07279 46.7712 2.03354 46.6961 2.00084 46.6164C1.9686 46.5368 1.94337 46.4546 1.92609 46.3699C1.90833 46.2852 1.89899 46.1995 1.89712 46.1128C1.89525 46.026 1.90086 45.9398 1.91487 45.8541C1.92889 45.7684 1.94991 45.6852 1.97935 45.604C2.00831 45.5234 2.04429 45.4462 2.08727 45.3726C2.13025 45.2995 2.17977 45.2315 2.23537 45.1684C2.2905 45.1054 2.35123 45.049 2.41711 44.999C2.48298 44.9491 2.55259 44.9063 2.62594 44.871L13.1196 39.8591C13.1929 39.8253 13.2686 39.7991 13.3466 39.7814C13.4246 39.7638 13.5036 39.7542 13.5835 39.7527C13.6634 39.7517 13.7423 39.7587 13.8208 39.7739C13.8993 39.7895 13.9759 39.8127 14.0502 39.8444C14.1245 39.8757 14.195 39.915 14.2623 39.9614C14.3296 40.0078 14.3917 40.0607 14.4497 40.1202C14.5071 40.1797 14.559 40.2447 14.6048 40.3153C14.6505 40.3859 14.6898 40.4605 14.722 40.5392C14.7547 40.6178 14.7795 40.699 14.7972 40.7832C14.815 40.8669 14.8248 40.9521 14.8271 41.0383C14.8295 41.124 14.8239 41.2097 14.8108 41.2944C14.7977 41.3796 14.7772 41.4623 14.7487 41.543C14.7206 41.6236 14.6856 41.7003 14.6435 41.7734C14.6015 41.8465 14.5534 41.9151 14.4987 41.9781C14.4445 42.0411 14.3852 42.0976 14.3202 42.148C14.2558 42.1984 14.1871 42.2418 14.1147 42.2781L3.61826 47.291ZM17.4247 39.3337V39.3317C16.6511 37.4401 15.584 35.6714 14.4702 34.7468L15.7363 33.5993C16.2367 33.6981 17.8648 35.2101 19.2641 38.6294C20.2045 40.9304 20.4834 42.7308 20.4834 43.8037C20.4834 44.3023 20.4246 44.6446 20.3419 44.8065L18.5614 44.9138C18.7193 43.3892 18.2255 41.2818 17.4247 39.3327V39.3337ZM16.6749 45.0399C16.4235 44.929 15.9554 44.513 15.4097 43.7442C15.6461 43.5596 15.8536 43.3429 16.032 43.0943C16.211 42.8452 16.3535 42.5745 16.4605 42.2816C16.8141 43.7134 16.794 44.687 16.6749 45.0394V45.0399ZM14.6692 37.974C14.4062 37.8696 14.1352 37.8056 13.8559 37.7819C13.5765 37.7582 13.2994 37.7753 13.0247 37.8338C12.8906 36.953 12.9238 36.3475 13.0116 36.0844C13.3214 36.2205 13.9605 36.8199 14.6692 37.9735V37.974ZM22.1023 55.3355C19.9864 52.8953 17.0856 49.4705 14.9916 46.6905C14.4931 46.0275 14.0413 45.3595 13.6237 44.6779L13.7358 44.625C13.9731 44.99 14.2315 45.3368 14.5113 45.6651C15.4667 46.7742 16.2512 47.0762 16.8398 47.0515C16.9772 47.044 17.1117 47.0192 17.2435 46.9764L19.9728 46.812C20.1148 46.8393 20.2578 46.8509 20.4017 46.8458C20.6269 46.8357 20.8427 46.7813 21.0492 46.6835C21.7182 46.3653 22.4774 45.4785 22.2943 43.0726C22.1766 41.5389 21.6963 39.6771 20.9408 37.8323C20.1854 35.987 19.2346 34.348 18.2647 33.2207C16.7412 31.4516 15.6228 31.4596 14.9533 31.7788C14.6903 31.9048 14.4683 32.0888 14.2875 32.3308L12.1076 34.3036C11.5465 34.6439 10.977 35.4592 11.1246 37.3901C11.1583 37.7874 11.2129 38.1812 11.2877 38.5714L11.0476 38.6864C10.2445 35.74 9.85762 32.3051 9.77539 27.9597C9.70765 24.3705 10.9504 21.9349 12.2908 20.3599C12.2758 20.678 12.2894 20.9951 12.3309 21.3102C12.373 21.6258 12.4426 21.9339 12.5398 22.2349C12.6369 22.5359 12.7603 22.8237 12.9093 23.099C13.0584 23.3738 13.2303 23.6309 13.4256 23.8699L21.1469 33.3175C21.5711 33.8358 22.042 34.2996 22.5587 34.7085C23.0909 35.6341 26.62 42.1621 25.595 49.0934C24.8125 54.3947 22.2401 55.1918 22.1887 55.1681L22.1023 55.3355ZM61.7809 38.8013L61.1245 38.8371L61.0675 37.4995L61.8538 36.7453C61.8305 37.5162 61.8066 38.1968 61.7809 38.8003V38.8013ZM59.4356 36.4191C59.3604 36.4922 59.303 36.5789 59.2642 36.6798C59.2249 36.7806 59.2076 36.8855 59.2119 36.9949L59.3459 40.1832C59.3478 40.2311 59.3543 40.2785 59.3646 40.3249C59.3754 40.3713 59.3899 40.4162 59.409 40.4595C59.4277 40.5029 59.4501 40.5437 59.4768 40.582C59.5029 40.6209 59.5323 40.6561 59.5651 40.6884C59.5982 40.7207 59.6333 40.7489 59.6716 40.7736C59.7094 40.7983 59.7491 40.8185 59.7912 40.8346C59.8328 40.8508 59.8757 40.8624 59.9197 40.8694C59.9631 40.8765 60.0075 40.879 60.0519 40.8765L61.6413 40.7913C61.4506 42.517 61.0638 43.5087 60.0977 44.8695L30.2562 57.452C27.4927 58.6166 24.4013 57.8896 22.3387 55.6057C22.6451 55.7035 22.9582 55.7519 23.2777 55.7524C23.8482 55.7509 24.3826 55.5997 24.8802 55.2987C26.4771 54.3473 27.504 52.0105 27.9328 48.3538C28.5397 43.1674 27.1905 38.9092 26.0281 36.3511C26.4588 36.4448 26.8938 36.5028 27.333 36.526C27.7721 36.5487 28.2108 36.5361 28.6481 36.4872C29.0854 36.4388 29.5171 36.3551 29.9427 36.2366C30.3683 36.1176 30.7832 35.9654 31.1878 35.7788L59.245 22.9276C60.3981 25.6007 61.9622 29.9794 61.9347 34.0163L59.4356 36.4191ZM65.5853 42.5528L62.8606 43.7023C63.2236 42.7449 63.4072 41.7341 63.517 40.4378L67.8792 38.4948C67.1513 40.8941 65.9385 42.2095 65.5853 42.5523V42.5528ZM68.3562 36.1418L63.638 38.2432C63.6581 37.6932 63.6768 37.0997 63.6969 36.4529C63.7095 36.039 63.7226 35.5998 63.739 35.135L68.3791 33.0387C68.4735 34.0737 68.466 35.1078 68.3562 36.1413V36.1418ZM68.6197 30.7936L63.7446 32.9893C63.5427 28.9075 62.0687 24.7739 60.9391 22.1522C60.5279 21.159 60.1252 20.3755 60.1252 20.3755C59.8482 19.8113 59.6613 19.4629 59.6263 19.3999L59.5716 19.3011L46.9859 5.06392L48.0217 4.6384L48.5809 5.30138C48.5529 5.31247 48.5267 5.3276 48.5024 5.34575C48.4776 5.3639 48.4557 5.38508 48.4361 5.40928C48.4164 5.43348 48.3996 5.45969 48.3861 5.48843C48.3725 5.51666 48.3622 5.54691 48.3552 5.57817C48.3482 5.60943 48.345 5.64119 48.3454 5.67296C48.3459 5.70522 48.3496 5.73698 48.3571 5.76774C48.3646 5.799 48.3758 5.82874 48.3898 5.85698C48.4043 5.88521 48.4216 5.91092 48.4417 5.93462L57.2665 16.2751C57.3235 16.3416 57.3884 16.3971 57.4618 16.4415C57.5351 16.4858 57.6127 16.5166 57.6949 16.5342C57.7776 16.5524 57.8603 16.5559 57.9434 16.5453C58.0271 16.5347 58.1069 16.5105 58.1831 16.4732L61.7258 20.3296L61.9001 20.3115C61.9973 20.3019 64.322 20.0483 65.4423 18.3906L65.6278 18.1193L62.264 14.4606C62.3051 14.4404 62.3434 14.4152 62.379 14.385C62.4145 14.3547 62.4458 14.3204 62.4738 14.2821C62.5018 14.2438 62.5247 14.2025 62.5434 14.1581C62.5621 14.1137 62.5756 14.0679 62.5841 14.02C62.5925 13.9721 62.5957 13.9237 62.5934 13.8753C62.5911 13.8264 62.5836 13.779 62.571 13.7321C62.5579 13.6857 62.5401 13.6413 62.5177 13.599C62.4948 13.5571 62.4677 13.5183 62.4364 13.483L53.8195 3.79291C53.7574 3.72283 53.6873 3.66385 53.6093 3.61645C53.5313 3.56856 53.4481 3.53428 53.3607 3.5131C53.2729 3.49142 53.1846 3.48436 53.0949 3.49142C53.0057 3.49848 52.9188 3.51915 52.8347 3.55394L52.5287 3.2106C53.8597 3.28572 54.3769 3.8398 54.4628 3.9487L54.4797 3.98248L66.8561 17.9288C70.6478 27.8599 68.8841 30.478 68.6197 30.7931V30.7936ZM74.6362 13.8284L68.4305 16.8589L68.4193 16.8292L66.7678 14.9653L73.6948 11.5828C73.7635 11.548 73.8341 11.5213 73.9074 11.5021C73.9808 11.4825 74.055 11.4714 74.1307 11.4679C74.2059 11.4643 74.2812 11.4694 74.3559 11.482C74.4302 11.4946 74.5031 11.5153 74.5736 11.5435C74.6446 11.5717 74.7124 11.607 74.7764 11.6499C74.8409 11.6927 74.9007 11.7416 74.9558 11.7971C75.0109 11.8525 75.0609 11.9135 75.1048 11.9796C75.1487 12.0456 75.1866 12.1162 75.2174 12.1903C75.2487 12.2644 75.273 12.3411 75.2898 12.4207C75.3071 12.4999 75.3165 12.5806 75.3188 12.6617C75.3211 12.7434 75.316 12.8241 75.3034 12.9042C75.2908 12.9849 75.2711 13.063 75.244 13.1392C75.2169 13.2153 75.1833 13.2879 75.1431 13.3565C75.1029 13.4255 75.0567 13.4896 75.0044 13.5486C74.9525 13.6075 74.8955 13.6605 74.8338 13.7069C74.7717 13.7538 74.7063 13.7936 74.6372 13.8264L74.6362 13.8284Z" fill="#0D0F1A"/>
</g>
</svg>
