<svg width="27" height="27" viewBox="0 0 27 27" fill="none" xmlns="http://www.w3.org/2000/svg">
<path d="M12.54 3.82043C13.1237 3.3696 13.932 3.36955 14.5156 3.82043L14.6367 3.92395L15.001 4.27161C15.9383 5.18058 17.4503 6.75724 18.8008 8.66516C20.3267 10.821 21.7383 13.5267 21.7383 16.2345C21.7383 20.503 17.993 23.8439 13.5273 23.8439C9.06183 23.8437 5.31738 20.5029 5.31738 16.2345C5.3174 13.5267 6.72896 10.821 8.25488 8.66516C9.79808 6.48495 11.5523 4.73709 12.4189 3.92395L12.54 3.82043Z" stroke="#E7ECEF" stroke-width="1.68424"/>
<path d="M13.5278 19.8436C12.9748 19.8436 12.4273 19.7347 11.9164 19.5231C11.4056 19.3115 10.9414 19.0013 10.5504 18.6103C10.1594 18.2193 9.84926 17.7552 9.63765 17.2443C9.42605 16.7335 9.31714 16.1859 9.31714 15.633" stroke="#E7ECEF" stroke-width="1.68424" stroke-linecap="round"/>
</svg>
