<svg width="20" height="20" viewBox="0 0 20 20" fill="none" xmlns="http://www.w3.org/2000/svg">
<path d="M7.33333 13.3334V11.3334M7.33333 11.3334V4.66669C7.33333 4.31306 7.47381 3.97393 7.72386 3.72388C7.97391 3.47383 8.31304 3.33335 8.66667 3.33335C9.02029 3.33335 9.35943 3.47383 9.60948 3.72388C9.85952 3.97393 10 4.31306 10 4.66669V10H14.4707C15.684 10 16.6667 10.9827 16.6667 12.196V13.3334C16.6667 14.9247 16.0345 16.4508 14.9093 17.576C13.7841 18.7012 12.258 19.3334 10.6667 19.3334H10C8.58551 19.3334 7.22896 18.7714 6.22876 17.7713C5.22857 16.7711 4.66667 15.4145 4.66667 14C4.66667 13.2928 4.94762 12.6145 5.44772 12.1144C5.94781 11.6143 6.62609 11.3334 7.33333 11.3334ZM12 7.33335H14.6667C15.5507 7.33335 16.3986 6.98216 17.0237 6.35704C17.6488 5.73192 18 4.88408 18 4.00002C18 3.11597 17.6488 2.26812 17.0237 1.643C16.3986 1.01788 15.5507 0.666687 14.6667 0.666687H5.33333C4.44928 0.666687 3.60143 1.01788 2.97631 1.643C2.35119 2.26812 2 3.11597 2 4.00002C2 4.88408 2.35119 5.73192 2.97631 6.35704C3.60143 6.98216 4.44928 7.33335 5.33333 7.33335" stroke="#879CB3"/>
</svg>
