<svg width="66" height="50" viewBox="0 0 66 50" fill="none" xmlns="http://www.w3.org/2000/svg">
<mask id="mask0_2204_290" style="mask-type:luminance" maskUnits="userSpaceOnUse" x="56" y="25" width="10" height="17">
<path d="M56.0297 25.873H65.7838V41.4684H56.0297V25.873Z" fill="white"/>
</mask>
<g mask="url(#mask0_2204_290)">
<path d="M63.8289 41.345L56.6668 39.3928C56.2458 39.2784 55.9889 38.8516 56.0894 38.4271C56.517 36.6255 56.7331 34.7688 56.7331 32.8973C56.7331 31.3992 56.5942 29.9053 56.3191 28.4463C56.2384 28.018 56.5154 27.6039 56.9411 27.5093L64.1866 25.8943C64.6352 25.7946 65.0752 26.0864 65.1637 26.5373C65.5723 28.6229 65.7791 30.7582 65.7791 32.8973C65.7791 35.553 65.4617 38.19 64.835 40.7482C64.7256 41.1948 64.2724 41.4661 63.8289 41.345Z" fill="#00739B"/>
</g>
<path d="M55.3382 24.8393C54.1776 21.6109 52.312 18.6445 49.8935 16.1833C49.5869 15.8717 49.5846 15.3731 49.8861 15.0564L55.0072 9.68272C55.3238 9.35057 55.8519 9.34708 56.1759 9.67185C59.6483 13.1547 62.3121 17.3919 63.9333 22.0121C64.0854 22.4456 63.853 22.9193 63.4157 23.0598L56.3498 25.3355C55.9338 25.4694 55.486 25.251 55.3382 24.8393Z" fill="#008ECC"/>
<path d="M46.6492 13.4228C43.9606 11.5211 40.8836 10.1887 37.6684 9.53291C37.2412 9.44599 36.9618 9.03353 37.0348 8.6036L38.2733 1.28471C38.3502 0.83228 38.7851 0.533502 39.2352 0.621971C43.8415 1.52529 48.2471 3.43242 52.0699 6.17846C52.4424 6.4458 52.5227 6.96769 52.2456 7.33321L47.7609 13.2482C47.4974 13.5959 47.0054 13.6751 46.6492 13.4232V13.4228Z" fill="#139DE6"/>
<mask id="mask1_2204_290" style="mask-type:luminance" maskUnits="userSpaceOnUse" x="15" y="0" width="21" height="13">
<path d="M15.3029 0H35.1696V12.5622H15.3029V0Z" fill="white"/>
</mask>
<g mask="url(#mask1_2204_290)">
<path d="M19.5478 12.1765L15.5225 5.93982C15.2734 5.55412 15.3937 5.04038 15.7852 4.80136C20.9311 1.66342 26.826 0.00927734 32.8896 0.00927734C33.3742 0.00927734 33.862 0.0197539 34.3466 0.0410952C34.8037 0.0608844 35.1541 0.454339 35.1227 0.910266L34.6113 8.31568C34.5814 8.75259 34.2104 9.08668 33.7727 9.07077C33.4786 9.06029 33.1837 9.05486 32.8896 9.05486C28.5523 9.05486 24.3364 10.2205 20.6463 12.433C20.2711 12.658 19.7853 12.5443 19.5478 12.1765Z" fill="#4FB7D3"/>
</g>
<path d="M10.3097 23.0132L3.51081 20.0324C3.0902 19.8477 2.90744 19.3526 3.10261 18.9371C5.24333 14.3786 8.42628 10.3455 12.3721 7.19161C12.731 6.90486 13.2552 6.96733 13.5327 7.33324L18.0178 13.2483C18.2817 13.5963 18.2239 14.0914 17.8843 14.3669C15.127 16.6031 12.8928 19.4333 11.3663 22.6229C11.1778 23.0167 10.7098 23.1886 10.3097 23.0132Z" fill="#79BFD8"/>
<mask id="mask2_2204_290" style="mask-type:luminance" maskUnits="userSpaceOnUse" x="0" y="22" width="11" height="19">
<path d="M0 22.9922H10.0381V40.475H0V22.9922Z" fill="white"/>
</mask>
<g mask="url(#mask2_2204_290)">
<path d="M1.70458 40.3869C1.25681 40.494 0.813295 40.2077 0.717454 39.7576C0.24135 37.5121 0 35.2088 0 32.8973C0 29.7365 0.44739 26.6168 1.33053 23.6108C1.46013 23.1696 1.92498 22.9193 2.36267 23.0602L9.42934 25.3355C9.84491 25.4694 10.0816 25.9079 9.96171 26.3273C9.35367 28.4537 9.04597 30.66 9.04597 32.8973C9.04597 34.52 9.20894 36.1354 9.53139 37.7107C9.61869 38.1383 9.34902 38.557 8.92452 38.6587L1.70458 40.3873V40.3869Z" fill="#A4CEE0"/>
</g>
<mask id="mask3_2204_290" style="mask-type:luminance" maskUnits="userSpaceOnUse" x="21" y="14" width="24" height="36">
<path d="M21.1636 14.6483H44.805V49.1702H21.1636V14.6483Z" fill="white"/>
</mask>
<g mask="url(#mask3_2204_290)">
<path d="M34.0048 15.2787C33.4833 14.5628 32.4197 14.5612 31.8959 15.276C29.0066 19.2214 21.188 30.5323 21.188 37.394C21.188 43.8977 26.4484 49.1581 32.9524 49.1581C39.4565 49.1581 44.7169 43.8977 44.7169 37.394C44.7169 30.6075 36.8909 19.24 34.0048 15.2787Z" fill="#139DE6"/>
</g>
</svg>
