<svg width="48" height="60" viewBox="0 0 48 60" fill="none" xmlns="http://www.w3.org/2000/svg">
<path d="M43.0549 46.9347C41.4208 51.1834 38.229 54.9176 34.0689 56.9688C29.285 59.3276 23.6357 58.9918 18.5951 57.6722C13.9938 56.4674 9.55626 54.1633 6.40811 50.5987C2.98385 46.7212 1.65375 41.5937 1.86593 36.5399C2.10335 30.9051 4.2818 25.564 6.83049 20.5801C9.24276 15.8654 12.2817 11.4541 16.3668 7.97867C16.9318 7.49825 17.5142 7.03717 18.1123 6.5925C21.654 3.70965 25.7928 1.57055 30.253 0.365724C30.8345 0.2093 31.3139 1.01896 30.9292 1.45085C30.1819 2.29265 29.712 3.32203 29.5198 4.41765C29.0748 6.95388 29.9884 9.44059 31.1467 11.6794C32.3259 13.9585 33.7842 16.0848 35.272 18.179C38.3015 22.4418 41.505 26.6764 43.1201 31.6898C44.7063 36.6121 44.9329 42.0538 43.0549 46.9347ZM9.80647 55.7771C9.36639 54.7277 7.87823 54.1243 7.00987 53.4232C6.1684 52.744 5.43514 51.954 4.74222 51.1322C3.27341 49.3893 2.24206 47.2892 1.56357 45.1334C1.2786 44.2309 0.0567243 44.4562 0.102963 45.3944C0.232168 48.0231 1.23728 50.4528 2.69789 52.6443C3.42393 53.7341 4.32574 54.6828 5.30692 55.5554C6.26349 56.408 7.56506 57.6092 8.945 57.4184C9.73761 57.3082 10.0865 56.4434 9.80647 55.7771ZM14.3437 57.9959C14.1089 57.4905 13.6141 57.3069 13.111 57.1586C12.7077 57.0399 12.4716 56.8822 12.0276 56.7579C10.846 56.4247 10.0996 57.8703 10.8732 58.7039C11.2599 59.12 11.8984 59.3879 12.4394 59.547C13.1976 59.7687 13.8643 59.5906 14.3437 58.9718C14.5644 58.6848 14.4792 58.2887 14.3437 57.9959ZM41.9238 21.2727C41.5608 20.8244 41.1243 20.4201 40.5714 20.4627C40.5429 20.4604 40.5131 20.4581 40.4845 20.4555C40.0385 20.4178 39.7277 20.8503 39.7477 21.2465C39.704 21.7433 40.1441 22.1217 40.3789 22.4431C40.6934 22.8724 40.9036 23.4413 41.5005 23.5541C41.8586 23.6217 42.2432 23.5102 42.4318 23.1829C42.8364 22.4749 42.3665 21.8194 41.9238 21.2727ZM46.6785 29.4084C46.0554 27.7031 45.1372 26.1297 43.8448 24.8275C43.2588 24.2372 42.4259 24.9829 42.745 25.6601C43.4343 27.121 44.1118 28.5866 44.6233 30.1187C44.8762 30.8765 45.0779 31.6508 45.2261 32.4335C45.372 33.2055 45.3648 34.0355 45.6222 34.7789C45.9213 35.6433 47.3914 35.8224 47.598 34.7789C47.9361 33.0737 47.2635 31.0093 46.6785 29.4084ZM47.4498 38.0435C47.0927 37.5181 46.2929 37.4673 45.9462 38.0435C45.7364 38.3944 45.7173 38.7846 45.6567 39.1781C45.5786 39.6858 45.5809 40.0878 45.9272 40.5017C46.1017 40.7092 46.4221 40.7496 46.67 40.6948C47.6964 40.4685 47.9624 38.7977 47.4498 38.0435ZM16.4891 4.51964C15.5741 4.4957 14.7996 5.21912 14.1112 5.74086C13.3485 6.31966 12.6756 7.00864 12.0171 7.69763C10.808 8.9641 9.35327 10.489 9.12765 12.2641C9.07912 12.6507 9.56676 12.8167 9.85632 12.6743C11.3809 11.925 12.4785 10.2814 13.6498 9.08839C14.249 8.47909 14.8966 7.918 15.4925 7.30739C16.0667 6.71908 16.9115 6.11798 17.0872 5.29028C17.1715 4.89906 16.9115 4.53013 16.4891 4.51964ZM19.2598 3.0669C19.1742 2.92458 19.0745 2.91868 18.9404 2.85112C18.9725 2.86424 19.0033 2.87736 19.0355 2.89146C18.9371 2.83571 18.8302 2.80718 18.7151 2.80619C18.5728 2.80259 18.4658 2.84292 18.3376 2.89605C18.498 2.82981 18.3376 2.89146 18.3117 2.90228C18.13 2.96983 17.9936 3.06231 17.888 3.22234C17.811 3.33843 17.7883 3.45944 17.7562 3.58766C17.7064 3.78671 17.7883 4.02151 17.9795 4.1235C18.3566 4.32518 18.7636 4.31665 19.0758 3.99429C19.3132 3.74867 19.4483 3.38106 19.2598 3.0669Z" fill="#7FC8E5"/>
<path d="M21.4799 12.8189C20.6362 13.623 19.6205 14.3569 18.5574 14.8573C17.2011 15.4965 15.2528 15.1039 15.2873 13.2862C15.3027 12.469 15.8306 11.6023 16.3812 10.8848C17.2391 9.25102 19.0795 7.84943 20.7585 7.4851C22.2001 7.17324 23.682 8.12916 23.5967 9.66126C23.5302 10.872 22.3102 12.0279 21.4799 12.8189ZM14.1815 15.5817C13.9736 15.3755 13.7338 15.244 13.442 15.1905C12.7835 15.0721 12.1867 15.4397 11.9505 16.049C11.9092 16.1451 11.8676 16.2412 11.8272 16.3373C11.7964 16.3967 11.7692 16.4583 11.7476 16.5223C11.6705 16.7584 11.6587 16.9978 11.7134 17.2398C11.8082 17.6523 12.086 17.9724 12.468 18.1514C12.8606 18.3364 13.3046 18.3426 13.6961 18.1409C13.9083 18.0307 14.0818 17.8763 14.2133 17.6795C14.3487 17.4746 14.4222 17.2503 14.434 17.0073C14.4638 16.8423 14.4933 16.6777 14.5232 16.5127C14.5753 16.2235 14.3864 15.7834 14.1815 15.5817ZM35.9247 50.4518C35.5735 49.7392 34.7704 49.2243 33.9161 49.4935C33.051 49.7664 32.2003 50.0805 31.3802 50.4672C30.3147 50.9699 29.0427 51.9137 29.8343 53.2254C30.5531 54.4171 32.1075 53.9747 33.1756 53.6117C34.0715 53.3084 35.1537 52.8955 35.7705 52.1534C36.1965 51.6412 36.1906 50.9899 35.9247 50.4518ZM27.8894 53.6711C27.8644 53.3854 27.771 53.1897 27.607 52.9526C27.0922 52.3324 26.2117 52.2006 25.4833 52.5872C24.9672 52.8614 24.6704 53.4044 24.7202 53.976C24.7688 54.5309 25.1508 55.0359 25.704 55.2104C26.3136 55.4012 26.9485 55.2825 27.4198 54.8533C27.7565 54.5473 27.9287 54.1157 27.8894 53.6711ZM27.5503 52.8683C27.5549 52.8755 27.5608 52.8827 27.5657 52.8909C27.5644 52.8896 27.5644 52.8886 27.5631 52.886C27.5585 52.8801 27.5549 52.8742 27.5503 52.8683ZM27.6237 52.9726C27.6664 53.0319 27.708 53.0913 27.7506 53.1506C27.7116 53.0867 27.6687 53.0283 27.6237 52.9726ZM27.5657 52.8909C27.5811 52.9122 27.5929 52.9312 27.607 52.9526C27.6129 52.9598 27.6178 52.9657 27.6237 52.9726C27.6047 52.9453 27.5847 52.9181 27.5657 52.8909Z" fill="#B0DFEA"/>
</svg>
