<svg width="64" height="64" viewBox="0 0 64 64" fill="none" xmlns="http://www.w3.org/2000/svg">
<circle cx="31.8558" cy="31.951" r="6.21065" stroke="#00B2FF" stroke-width="3.36849"/>
<path d="M31.8558 24.0562V16.1613M31.8558 8.26636V16.1613M31.8558 16.1613L23.9609 10.898M31.8558 16.1613L39.7507 10.898" stroke="#00B2FF" stroke-width="3.36849" stroke-linecap="round"/>
<path d="M39.7507 31.9511L47.6456 31.9511M55.5405 31.9511L47.6456 31.9511M47.6456 31.9511L52.9089 24.0562M47.6456 31.9511L52.9089 39.846" stroke="#00B2FF" stroke-width="3.36849" stroke-linecap="round"/>
<path d="M31.8558 39.8459V47.7408M31.8558 55.6357V47.7408M31.8558 47.7408L23.9609 53.0041M31.8558 47.7408L39.7507 53.0041" stroke="#00B2FF" stroke-width="3.36849" stroke-linecap="round"/>
<path d="M23.9609 31.9511L16.066 31.9511M8.17114 31.9511L16.066 31.9511M16.066 31.9511L10.8028 24.0562M16.066 31.9511L10.8028 39.8459" stroke="#00B2FF" stroke-width="3.36849" stroke-linecap="round"/>
</svg>
