<svg width="15" height="33" viewBox="0 0 15 33" fill="none" xmlns="http://www.w3.org/2000/svg">
<mask id="mask0_2211_305" style="mask-type:luminance" maskUnits="userSpaceOnUse" x="0" y="0" width="15" height="33">
<path d="M0.655273 0.154053H14.3414V32.8222H0.655273V0.154053Z" fill="white"/>
</mask>
<g mask="url(#mask0_2211_305)">
<path d="M1.6968 25.7527C1.6968 25.5108 2.02067 25.2409 2.48541 25.2409C2.77317 25.2409 3.00639 25.0077 3.00639 24.7202C3.00639 24.4324 2.77317 24.1992 2.48541 24.1992C2.02067 24.1992 1.6968 23.9295 1.6968 23.6874V21.9362C1.6968 21.6942 2.02067 21.4246 2.48541 21.4246C2.77317 21.4246 3.00639 21.1914 3.00639 20.9037C3.00639 20.6161 2.77317 20.3829 2.48541 20.3829C2.02067 20.3829 1.6968 20.1132 1.6968 19.8711V18.1199C1.6968 17.8779 2.02067 17.6083 2.48541 17.6083C2.77317 17.6083 3.00639 17.3751 3.00639 17.0874C3.00639 16.7998 2.77317 16.5666 2.48541 16.5666C2.02067 16.5666 1.6968 16.2969 1.6968 16.0548V10.5902C1.79704 10.321 2.46284 9.29413 3.52342 7.9584C4.72524 6.44493 5.47041 5.74264 5.7087 5.61456H9.28728C9.52576 5.74264 10.2707 6.44493 11.4729 7.9584C12.5331 9.29413 13.1993 10.321 13.2992 10.5902V16.0548C13.2992 16.2969 12.9753 16.5666 12.5106 16.5666C12.2228 16.5666 11.9896 16.7998 11.9896 17.0874C11.9896 17.3751 12.2228 17.6083 12.5106 17.6083C12.9753 17.6083 13.2992 17.8779 13.2992 18.1199V19.8711C13.2992 20.1132 12.9753 20.3829 12.5106 20.3829C12.2228 20.3829 11.9896 20.6161 11.9896 20.9037C11.9896 21.1914 12.2228 21.4246 12.5106 21.4246C12.9753 21.4246 13.2992 21.6942 13.2992 21.9362V23.6874C13.2992 23.9295 12.9753 24.1992 12.5106 24.1992C12.2228 24.1992 11.9896 24.4324 11.9896 24.7202C11.9896 25.0077 12.2228 25.2409 12.5106 25.2409C12.9753 25.2409 13.2992 25.5108 13.2992 25.7527V31.2657C13.2992 31.5077 12.9753 31.7776 12.5106 31.7776H2.48541C2.02067 31.7776 1.6968 31.5077 1.6968 31.2657V25.7527ZM4.49672 1.72302C4.49672 1.48097 4.8206 1.21126 5.28534 1.21126H9.71083C10.1756 1.21126 10.4994 1.48097 10.4994 1.72302V4.06065C10.4994 4.30271 10.1756 4.57242 9.71083 4.57242H5.28534C4.8206 4.57242 4.49672 4.30271 4.49672 4.06065V1.72302ZM1.23694 32.4051C1.57586 32.6723 2.01916 32.8194 2.48541 32.8194H12.5106C12.9768 32.8194 13.4203 32.6723 13.7592 32.4051C14.1292 32.1135 14.341 31.6981 14.341 31.2657V25.7527C14.341 25.3705 14.1754 25.0019 13.8815 24.7202C14.1754 24.4382 14.341 24.0694 14.341 23.6874V21.9362C14.341 21.5542 14.1754 21.1856 13.8815 20.9037C14.1754 20.6219 14.341 20.2531 14.341 19.8711V18.1199C14.341 17.7379 14.1754 17.3693 13.8815 17.0874C14.1754 16.8056 14.341 16.4368 14.341 16.0548V10.5417C14.341 10.3562 14.2883 10.0967 13.655 9.15853C13.2819 8.6052 12.7876 7.93771 12.2636 7.27943C11.8702 6.78498 11.2841 6.07517 10.7266 5.50153C10.6943 5.46805 10.6631 5.43645 10.632 5.40523C10.7488 5.34787 10.8587 5.2794 10.9595 5.20004C11.3291 4.90833 11.5414 4.49324 11.5414 4.06065V1.72302C11.5414 1.29082 11.3291 0.875354 10.9595 0.58402C10.6206 0.31676 10.1771 0.169495 9.71083 0.169495H5.28534C4.81909 0.169495 4.3756 0.31676 4.03668 0.58402C3.66692 0.875354 3.45477 1.29082 3.45477 1.72302V4.06065C3.45477 4.49324 3.66692 4.90833 4.03668 5.20004C4.13731 5.2794 4.24733 5.34768 4.36413 5.40523C4.33328 5.43645 4.30188 5.46805 4.26934 5.50153C3.71206 6.07517 3.12601 6.78498 2.73255 7.27943C2.20837 7.93771 1.7141 8.6052 1.34095 9.15853C0.708067 10.0967 0.655029 10.3562 0.655029 10.5417V16.0548C0.655029 16.4368 0.820727 16.8056 1.11451 17.0874C0.820727 17.3693 0.655029 17.7379 0.655029 18.1199V19.8711C0.655029 20.2531 0.820727 20.6219 1.11451 20.9037C0.820727 21.1856 0.655029 21.5542 0.655029 21.9362V23.6874C0.655029 24.0694 0.820727 24.4382 1.11451 24.7202C0.820727 25.0019 0.655029 25.3705 0.655029 25.7527V31.2657C0.655029 31.6981 0.866994 32.1135 1.23694 32.4051Z" fill="#274C77"/>
</g>
</svg>
