<svg width="61" height="61" viewBox="0 0 61 61" fill="none" xmlns="http://www.w3.org/2000/svg">
<path d="M51.0306 36.0524C51.0306 47.6805 41.404 57.0307 29.7759 56.3368C17.8256 55.6239 9.64588 44.1311 11.1861 32.1179C12.1183 24.8112 15.5438 18.5454 19.2724 13.6845C19.9206 12.8362 20.5858 19.6625 21.2511 18.9114C21.9183 18.1394 28.1022 7.43768 30.2524 3.67855C30.3449 3.51275 30.472 3.36878 30.625 3.25645C30.7781 3.14411 30.9535 3.06603 31.1394 3.02751C31.3253 2.989 31.5173 2.99094 31.7024 3.03322C31.8875 3.07549 32.0613 3.15711 32.2121 3.27252C36.5316 6.53221 51.0306 18.7761 51.0306 36.0524Z" fill="#FF6723"/>
<path d="M45.3118 40.839C45.3118 48.5441 38.6037 54.7375 30.445 54.4573C21.6381 54.1599 15.5991 46.1003 16.8915 37.7985C18.7577 25.8959 30.9768 18.248 30.9768 18.248C30.9768 18.248 45.3118 27.2208 45.3118 40.839Z" fill="#FFB02E"/>
</svg>
