<svg width="45" height="46" viewBox="0 0 45 46" fill="none" xmlns="http://www.w3.org/2000/svg">
<mask id="mask0_2210_238" style="mask-type:luminance" maskUnits="userSpaceOnUse" x="12" y="14" width="23" height="19">
<path d="M12.1665 14.2103H34.8887V32.2937H12.1665V14.2103Z" fill="white"/>
</mask>
<g mask="url(#mask0_2210_238)">
<path d="M33.4023 32.2873H12.6319C12.4001 32.2873 12.2122 32.0992 12.2122 31.867V14.6369C12.2122 14.4049 12.4001 14.2168 12.6319 14.2168H33.4023C34.2122 14.2168 34.871 14.8765 34.871 15.6875V30.8164C34.871 31.6274 34.2122 32.2873 33.4023 32.2873ZM13.0514 31.4468H33.4023C33.7495 31.4468 34.0318 31.1641 34.0318 30.8164V15.6875C34.0318 15.3401 33.7495 15.0573 33.4023 15.0573H13.0514V31.4468Z" fill="#274C77"/>
</g>
<path d="M36.969 25.9836H34.4512C34.2197 25.9836 34.0317 25.7954 34.0317 25.5634V20.5205C34.0317 20.2885 34.2197 20.1003 34.4512 20.1003H36.969C37.2006 20.1003 37.3885 20.2885 37.3885 20.5205V25.5634C37.3885 25.7954 37.2006 25.9836 36.969 25.9836ZM34.8709 25.1431H36.5493V20.9408H34.8709V25.1431Z" fill="#274C77"/>
<path d="M39.0669 24.7229H36.969C36.7373 24.7229 36.5493 24.5348 36.5493 24.3026V21.7811C36.5493 21.5491 36.7373 21.361 36.969 21.361H39.0669C39.2987 21.361 39.4866 21.5491 39.4866 21.7811V24.3026C39.4866 24.5348 39.2987 24.7229 39.0669 24.7229ZM37.3885 23.8824H38.6474V22.2015H37.3885V23.8824Z" fill="#274C77"/>
<mask id="mask1_2210_238" style="mask-type:luminance" maskUnits="userSpaceOnUse" x="34" y="28" width="7" height="3">
<path d="M34 28.0756H40.326V30.6311H34V28.0756Z" fill="white"/>
</mask>
<g mask="url(#mask1_2210_238)">
<path d="M39.9065 30.6063H34.4515C34.2199 30.6063 34.032 30.4182 34.032 30.186V28.505C34.032 28.273 34.2199 28.0848 34.4515 28.0848H39.9065C40.1381 28.0848 40.326 28.273 40.326 28.505V30.186C40.326 30.4182 40.1381 30.6063 39.9065 30.6063ZM34.8712 29.7658H39.4868V28.9253H34.8712V29.7658Z" fill="#274C77"/>
</g>
<mask id="mask2_2210_238" style="mask-type:luminance" maskUnits="userSpaceOnUse" x="34" y="15" width="7" height="4">
<path d="M34 15.4645H40.326V18.02H34V15.4645Z" fill="white"/>
</mask>
<g mask="url(#mask2_2210_238)">
<path d="M39.9065 17.999H34.4515C34.2199 17.999 34.032 17.8109 34.032 17.5789V15.8979C34.032 15.6657 34.2199 15.4775 34.4515 15.4775H39.9065C40.1381 15.4775 40.326 15.6657 40.326 15.8979V17.5789C40.326 17.8109 40.1381 17.999 39.9065 17.999ZM34.8712 17.1585H39.4868V16.318H34.8712V17.1585Z" fill="#274C77"/>
</g>
<mask id="mask3_2210_238" style="mask-type:luminance" maskUnits="userSpaceOnUse" x="27" y="14" width="2" height="19">
<path d="M27.7222 14.2103H28.6111V32.2937H27.7222V14.2103Z" fill="white"/>
</mask>
<g mask="url(#mask3_2210_238)">
<path d="M28.1573 32.2873C27.9255 32.2873 27.7375 32.0992 27.7375 31.867V14.6369C27.7375 14.4049 27.9255 14.2168 28.1573 14.2168C28.389 14.2168 28.577 14.4049 28.577 14.6369V31.867C28.577 32.0992 28.389 32.2873 28.1573 32.2873Z" fill="#274C77"/>
</g>
<path d="M12.6318 26.824H10.9532C10.7216 26.824 10.5337 26.6359 10.5337 26.4039V20.1003C10.5337 19.8681 10.7216 19.6799 10.9532 19.6799H12.6318C12.8633 19.6799 13.0513 19.8681 13.0513 20.1003V26.4039C13.0513 26.6359 12.8633 26.824 12.6318 26.824ZM11.3729 25.9835H12.2121V20.5204H11.3729V25.9835Z" fill="#274C77"/>
<path d="M10.9532 24.723H8.01592C7.78437 24.723 7.59644 24.5348 7.59644 24.3026V22.2015C7.59644 21.9695 7.78437 21.7811 8.01592 21.7811H10.9532C11.185 21.7811 11.3729 21.9695 11.3729 22.2015V24.3026C11.3729 24.5348 11.185 24.723 10.9532 24.723ZM8.43563 23.8825H10.5337V22.6216H8.43563V23.8825Z" fill="#274C77"/>
<mask id="mask4_2210_238" style="mask-type:luminance" maskUnits="userSpaceOnUse" x="4" y="18" width="5" height="11">
<path d="M4.65918 18.4089H8.44434V28.1312H4.65918V18.4089Z" fill="white"/>
</mask>
<g mask="url(#mask4_2210_238)">
<path d="M8.01595 28.0851H5.07888C4.84711 28.0851 4.65918 27.897 4.65918 27.6648V18.8397C4.65918 18.6077 4.84711 18.4196 5.07888 18.4196H8.01595C8.24772 18.4196 8.43566 18.6077 8.43566 18.8397V27.6648C8.43566 27.897 8.24772 28.0851 8.01595 28.0851ZM5.49837 27.2446H7.59646V19.2601H5.49837V27.2446Z" fill="#274C77"/>
</g>
<mask id="mask5_2210_238" style="mask-type:luminance" maskUnits="userSpaceOnUse" x="4" y="20" width="5" height="2">
<path d="M4.65918 20.52H8.44434V21.4089H4.65918V20.52Z" fill="white"/>
</mask>
<g mask="url(#mask5_2210_238)">
<path d="M8.01595 21.3608H5.07888C4.84711 21.3608 4.65918 21.1726 4.65918 20.9406C4.65918 20.7084 4.84711 20.5203 5.07888 20.5203H8.01595C8.24772 20.5203 8.43566 20.7084 8.43566 20.9406C8.43566 21.1726 8.24772 21.3608 8.01595 21.3608Z" fill="#274C77"/>
</g>
<mask id="mask6_2210_238" style="mask-type:luminance" maskUnits="userSpaceOnUse" x="4" y="22" width="5" height="2">
<path d="M4.65918 22.5756H8.44434V23.4645H4.65918V22.5756Z" fill="white"/>
</mask>
<g mask="url(#mask6_2210_238)">
<path d="M8.01595 23.4621H5.07888C4.84711 23.4621 4.65918 23.2739 4.65918 23.0419C4.65918 22.81 4.84711 22.6216 5.07888 22.6216H8.01595C8.24772 22.6216 8.43566 22.81 8.43566 23.0419C8.43566 23.2739 8.24772 23.4621 8.01595 23.4621Z" fill="#274C77"/>
</g>
<mask id="mask7_2210_238" style="mask-type:luminance" maskUnits="userSpaceOnUse" x="4" y="25" width="5" height="2">
<path d="M4.65918 25.1311H8.44434V26.02H4.65918V25.1311Z" fill="white"/>
</mask>
<g mask="url(#mask7_2210_238)">
<path d="M8.01595 25.9836H5.07888C4.84711 25.9836 4.65918 25.7954 4.65918 25.5634C4.65918 25.3314 4.84711 25.1431 5.07888 25.1431H8.01595C8.24772 25.1431 8.43566 25.3314 8.43566 25.5634C8.43566 25.7954 8.24772 25.9836 8.01595 25.9836Z" fill="#274C77"/>
</g>
<path d="M28.1573 27.2444H17.667C17.4355 27.2444 17.2476 27.0562 17.2476 26.824V20.1003C17.2476 19.8681 17.4355 19.6799 17.667 19.6799H28.1573C28.3891 19.6799 28.577 19.8681 28.577 20.1003V26.824C28.577 27.0562 28.3891 27.2444 28.1573 27.2444ZM18.0868 26.4039H27.7376V20.5204H18.0868V26.4039Z" fill="#274C77"/>
<path d="M14.7298 20.5205C14.4982 20.5205 14.3103 20.3323 14.3103 20.1003V17.999C14.3103 17.767 14.4982 17.5789 14.7298 17.5789C14.9616 17.5789 15.1495 17.767 15.1495 17.999V20.1003C15.1495 20.3323 14.9616 20.5205 14.7298 20.5205Z" fill="#274C77"/>
<path d="M14.7298 24.723C14.4982 24.723 14.3103 24.5348 14.3103 24.3026V22.2015C14.3103 21.9695 14.4982 21.7811 14.7298 21.7811C14.9616 21.7811 15.1495 21.9695 15.1495 22.2015V24.3026C15.1495 24.5348 14.9616 24.723 14.7298 24.723Z" fill="#274C77"/>
<path d="M14.7298 28.9254C14.4982 28.9254 14.3103 28.7372 14.3103 28.505V26.4039C14.3103 26.1719 14.4982 25.9835 14.7298 25.9835C14.9616 25.9835 15.1495 26.1719 15.1495 26.4039V28.505C15.1495 28.7372 14.9616 28.9254 14.7298 28.9254Z" fill="#274C77"/>
</svg>
