<svg width="36" height="36" viewBox="0 0 36 36" fill="none" xmlns="http://www.w3.org/2000/svg">
<path d="M5.25 25.5H13.131C12.418 25.056 11.774 24.5165 11.199 23.8815C10.625 23.2475 10.1625 22.537 9.8115 21.75H5.25V25.5ZM18 25.5C20.075 25.5 21.844 24.7685 23.307 23.3055C24.77 21.8425 25.501 20.074 25.5 18C25.499 15.926 24.7675 14.1575 23.3055 12.6945C21.8435 11.2315 20.075 10.5 18 10.5C15.925 10.5 14.1565 11.2315 12.6945 12.6945C11.2325 14.1575 10.501 15.926 10.5 18C10.499 20.074 11.2305 21.843 12.6945 23.307C14.1585 24.771 15.927 25.502 18 25.5ZM26.19 14.25H30.75V10.5H22.869C23.583 10.944 24.227 11.4835 24.801 12.1185C25.375 12.7525 25.838 13.463 26.19 14.25ZM3.75 28.155V19.095H5.25V20.25H9.315C9.207 19.885 9.1275 19.5165 9.0765 19.1445C9.0255 18.7725 9 18.391 9 18C9 15.493 9.8735 13.3665 11.6205 11.6205C13.3665 9.87347 15.493 8.99997 18 8.99997H30.75V7.84497H32.25V16.905H30.75V15.75H26.685C26.793 16.116 26.8725 16.485 26.9235 16.857C26.9745 17.229 27 17.61 27 18C27 20.507 26.1265 22.634 24.3795 24.381C22.6335 26.127 20.507 27 18 27H5.25V28.155H3.75ZM18 21.318C17.367 21.318 16.834 21.101 16.401 20.667C15.968 20.233 15.751 19.7 15.75 19.068C15.75 18.666 15.84 18.256 16.02 17.838C16.2 17.42 16.5215 16.8585 16.9845 16.1535L17.9715 14.6835L18.987 16.1535C19.481 16.8955 19.815 17.4655 19.989 17.8635C20.163 18.2615 20.25 18.663 20.25 19.068C20.25 19.7 20.033 20.233 19.599 20.667C19.166 21.101 18.633 21.318 18 21.318Z" fill="#274C77"/>
</svg>
