<svg width="27" height="27" viewBox="0 0 27 27" fill="none" xmlns="http://www.w3.org/2000/svg">
<path d="M12.5398 3.82043C13.1234 3.3696 13.9318 3.36955 14.5154 3.82043L14.6365 3.92395L15.0007 4.27161C15.9381 5.18058 17.4501 6.75724 18.8005 8.66516C20.3264 10.821 21.738 13.5267 21.738 16.2345C21.738 20.503 17.9928 23.8439 13.5271 23.8439C9.06158 23.8437 5.31714 20.5029 5.31714 16.2345C5.31715 13.5267 6.72872 10.821 8.25464 8.66516C9.79783 6.48495 11.552 4.73709 12.4187 3.92395L12.5398 3.82043Z" stroke="#274C77" stroke-width="1.68424"/>
<path d="M13.5275 19.8436C12.9746 19.8436 12.427 19.7347 11.9162 19.5231C11.4053 19.3115 10.9411 19.0013 10.5502 18.6103C10.1592 18.2193 9.84901 17.7552 9.63741 17.2443C9.42581 16.7335 9.31689 16.1859 9.31689 15.633" stroke="#274C77" stroke-width="1.68424" stroke-linecap="round"/>
</svg>
