<svg width="69" height="85" viewBox="0 0 69 85" fill="none" xmlns="http://www.w3.org/2000/svg">
<path d="M15.5624 55.125C16.7548 55.125 17.755 54.721 18.563 53.913C19.371 53.105 19.7736 52.1062 19.7708 50.9166C19.7679 49.7271 19.3639 48.7283 18.5588 47.9203C17.7536 47.1123 16.7548 46.7083 15.5624 46.7083C14.3701 46.7083 13.3713 47.1123 12.5661 47.9203C11.7609 48.7283 11.3569 49.7271 11.3541 50.9166C11.3513 52.1062 11.7553 53.1064 12.5661 53.9172C13.3769 54.728 14.3757 55.1306 15.5624 55.125ZM21.8749 42.5C23.0673 42.5 24.0675 42.096 24.8755 41.288C25.6835 40.48 26.0861 39.4812 26.0833 38.2916C26.0804 37.1021 25.6764 36.1033 24.8713 35.2953C24.0661 34.4873 23.0673 34.0833 21.8749 34.0833C20.6826 34.0833 19.6838 34.4873 18.8786 35.2953C18.0734 36.1033 17.6694 37.1021 17.6666 38.2916C17.6638 39.4812 18.0678 40.4814 18.8786 41.2922C19.6894 42.103 20.6882 42.5056 21.8749 42.5ZM21.8749 67.75C23.0673 67.75 24.0675 67.346 24.8755 66.538C25.6835 65.73 26.0861 64.7312 26.0833 63.5416C26.0804 62.3521 25.6764 61.3533 24.8713 60.5453C24.0661 59.7373 23.0673 59.3333 21.8749 59.3333C20.6826 59.3333 19.6838 59.7373 18.8786 60.5453C18.0734 61.3533 17.6694 62.3521 17.6666 63.5416C17.6638 64.7312 18.0678 65.7314 18.8786 66.5422C19.6894 67.353 20.6882 67.7556 21.8749 67.75ZM28.1874 55.125C29.3798 55.125 30.38 54.721 31.188 53.913C31.996 53.105 32.3986 52.1062 32.3958 50.9166C32.3929 49.7271 31.9889 48.7283 31.1838 47.9203C30.3786 47.1123 29.3798 46.7083 28.1874 46.7083C26.9951 46.7083 25.9963 47.1123 25.1911 47.9203C24.3859 48.7283 23.9819 49.7271 23.9791 50.9166C23.9763 52.1062 24.3803 53.1064 25.1911 53.9172C26.0019 54.728 27.0007 55.1306 28.1874 55.125ZM28.1874 29.875C29.3798 29.875 30.38 29.471 31.188 28.663C31.996 27.855 32.3986 26.8562 32.3958 25.6666C32.3929 24.4771 31.9889 23.4783 31.1838 22.6703C30.3786 21.8623 29.3798 21.4583 28.1874 21.4583C26.9951 21.4583 25.9963 21.8623 25.1911 22.6703C24.3859 23.4783 23.9819 24.4771 23.9791 25.6666C23.9763 26.8562 24.3803 27.8564 25.1911 28.6672C26.0019 29.478 27.0007 29.8806 28.1874 29.875ZM34.4999 42.5C35.6923 42.5 36.6925 42.096 37.5005 41.288C38.3085 40.48 38.7111 39.4812 38.7082 38.2916C38.7054 37.1021 38.3014 36.1033 37.4963 35.2953C36.6911 34.4873 35.6923 34.0833 34.4999 34.0833C33.3076 34.0833 32.3088 34.4873 31.5036 35.2953C30.6984 36.1033 30.2944 37.1021 30.2916 38.2916C30.2888 39.4812 30.6928 40.4814 31.5036 41.2922C32.3144 42.103 33.3132 42.5056 34.4999 42.5ZM34.4999 67.75C35.6923 67.75 36.6925 67.346 37.5005 66.538C38.3085 65.73 38.7111 64.7312 38.7082 63.5416C38.7054 62.3521 38.3014 61.3533 37.4963 60.5453C36.6911 59.7373 35.6923 59.3333 34.4999 59.3333C33.3076 59.3333 32.3088 59.7373 31.5036 60.5453C30.6984 61.3533 30.2944 62.3521 30.2916 63.5416C30.2888 64.7312 30.6928 65.7314 31.5036 66.5422C32.3144 67.353 33.3132 67.7556 34.4999 67.75ZM40.8124 55.125C42.0048 55.125 43.005 54.721 43.813 53.913C44.621 53.105 45.0236 52.1062 45.0207 50.9166C45.0179 49.7271 44.6139 48.7283 43.8088 47.9203C43.0036 47.1123 42.0048 46.7083 40.8124 46.7083C39.6201 46.7083 38.6213 47.1123 37.8161 47.9203C37.0109 48.7283 36.6069 49.7271 36.6041 50.9166C36.6013 52.1062 37.0053 53.1064 37.8161 53.9172C38.6269 54.728 39.6257 55.1306 40.8124 55.125ZM40.8124 29.875C42.0048 29.875 43.005 29.471 43.813 28.663C44.621 27.855 45.0236 26.8562 45.0207 25.6666C45.0179 24.4771 44.6139 23.4783 43.8088 22.6703C43.0036 21.8623 42.0048 21.4583 40.8124 21.4583C39.6201 21.4583 38.6213 21.8623 37.8161 22.6703C37.0109 23.4783 36.6069 24.4771 36.6041 25.6666C36.6013 26.8562 37.0053 27.8564 37.8161 28.6672C38.6269 29.478 39.6257 29.8806 40.8124 29.875ZM47.1249 42.5C48.3173 42.5 49.3175 42.096 50.1255 41.288C50.9335 40.48 51.3361 39.4812 51.3332 38.2916C51.3304 37.1021 50.9264 36.1033 50.1212 35.2953C49.3161 34.4873 48.3173 34.0833 47.1249 34.0833C45.9326 34.0833 44.9338 34.4873 44.1286 35.2953C43.3234 36.1033 42.9194 37.1021 42.9166 38.2916C42.9138 39.4812 43.3178 40.4814 44.1286 41.2922C44.9394 42.103 45.9382 42.5056 47.1249 42.5ZM47.1249 67.75C48.3173 67.75 49.3175 67.346 50.1255 66.538C50.9335 65.73 51.3361 64.7312 51.3332 63.5416C51.3304 62.3521 50.9264 61.3533 50.1212 60.5453C49.3161 59.7373 48.3173 59.3333 47.1249 59.3333C45.9326 59.3333 44.9338 59.7373 44.1286 60.5453C43.3234 61.3533 42.9194 62.3521 42.9166 63.5416C42.9138 64.7312 43.3178 65.7314 44.1286 66.5422C44.9394 67.353 45.9382 67.7556 47.1249 67.75ZM53.4374 55.125C54.6298 55.125 55.63 54.721 56.438 53.913C57.246 53.105 57.6486 52.1062 57.6457 50.9166C57.6429 49.7271 57.2389 48.7283 56.4337 47.9203C55.6286 47.1123 54.6298 46.7083 53.4374 46.7083C52.2451 46.7083 51.2463 47.1123 50.4411 47.9203C49.6359 48.7283 49.2319 49.7271 49.2291 50.9166C49.2263 52.1062 49.6303 53.1064 50.4411 53.9172C51.2519 54.728 52.2507 55.1306 53.4374 55.125ZM34.4999 84.5833C24.8909 84.5833 16.8782 81.2868 10.4619 74.6937C4.04561 68.1006 0.836058 59.8944 0.833252 50.075C0.833252 43.0611 3.62197 35.4342 9.19942 27.1942C14.7769 18.9543 23.2104 10.0285 34.4999 0.416626C45.7923 10.0257 54.2272 18.9515 59.8046 27.1942C65.3821 35.437 68.1694 43.0639 68.1666 50.075C68.1666 59.8944 64.9584 68.1006 58.5421 74.6937C52.1258 81.2868 44.1117 84.5833 34.4999 84.5833ZM34.4999 76.1666C41.7944 76.1666 47.8263 73.6935 52.5957 68.7473C57.3652 63.8011 59.7499 57.577 59.7499 50.075C59.7499 44.9548 57.6275 39.1684 53.3827 32.7156C49.1379 26.2628 42.8436 19.2138 34.4999 11.5687C26.1534 19.2138 19.8591 26.2628 15.6171 32.7156C11.3751 39.1684 9.25272 44.9548 9.24992 50.075C9.24992 57.5798 11.6346 63.8053 16.4041 68.7515C21.1735 73.6977 27.2055 76.1694 34.4999 76.1666Z" fill="#00B2FF"/>
</svg>
