<svg width="27" height="27" viewBox="0 0 27 27" fill="none" xmlns="http://www.w3.org/2000/svg">
<path d="M17.0116 13.8478L16.4539 14.4788L17.0116 13.8478ZM10.3697 6.63489H11.2118C11.2118 5.70471 11.9659 4.95064 12.8961 4.95064V4.10852V3.2664C11.0357 3.2664 9.52759 4.77452 9.52759 6.63489H10.3697ZM10.3697 13.1613H11.2118V6.63489H10.3697H9.52759V13.1613H10.3697ZM8.2644 17.793H9.10653C9.10653 16.4737 9.68338 15.2901 10.6014 14.4788L10.0437 13.8478L9.48607 13.2168C8.22165 14.3342 7.42228 15.9708 7.42228 17.793H8.2644ZM13.5277 23.0563V22.2142C11.0859 22.2142 9.10653 20.2347 9.10653 17.793H8.2644H7.42228C7.42228 21.1649 10.1558 23.8984 13.5277 23.8984V23.0563ZM18.7909 17.793H17.9488C17.9488 20.2347 15.9694 22.2142 13.5277 22.2142V23.0563V23.8984C16.8996 23.8984 19.6331 21.1649 19.6331 17.793H18.7909ZM17.0116 13.8478L16.4539 14.4788C17.372 15.2901 17.9488 16.4737 17.9488 17.793H18.7909H19.6331C19.6331 15.9708 18.8337 14.3342 17.5693 13.2168L17.0116 13.8478ZM16.6856 6.63489H15.8435V13.1613H16.6856H17.5278V6.63489H16.6856ZM14.1593 4.10852V4.95064C15.0894 4.95064 15.8435 5.70471 15.8435 6.63489H16.6856H17.5278C17.5278 4.77452 16.0196 3.2664 14.1593 3.2664V4.10852ZM12.8961 4.10852V4.95064H14.1593V4.10852V3.2664H12.8961V4.10852ZM17.0116 13.8478L17.5693 13.2168C17.5487 13.1986 17.537 13.1812 17.5315 13.1699C17.5265 13.1595 17.5278 13.1571 17.5278 13.1613H16.6856H15.8435C15.8435 13.7022 16.1023 14.168 16.4539 14.4788L17.0116 13.8478ZM10.3697 13.1613H9.52759C9.52759 13.1571 9.52883 13.1595 9.5238 13.1699C9.51831 13.1812 9.50667 13.1986 9.48607 13.2168L10.0437 13.8478L10.6014 14.4788C10.9531 14.168 11.2118 13.7022 11.2118 13.1613H10.3697Z" fill="#274C77"/>
<circle cx="13.5276" cy="17.793" r="2.31584" stroke="#274C77" stroke-width="1.68424"/>
</svg>
