<svg width="27" height="27" viewBox="0 0 27 27" fill="none" xmlns="http://www.w3.org/2000/svg">
<rect width="25.2637" height="25.2637" transform="translate(0.895844 0.950562)" fill="#274C77"/>
<path d="M17.0116 13.8477L17.5693 13.2167L17.0116 13.8477ZM10.0438 13.8478L10.6014 14.4788L10.0438 13.8478ZM10.3697 6.63489H11.2118C11.2118 5.70471 11.9659 4.95064 12.8961 4.95064V4.10852V3.2664C11.0357 3.2664 9.5276 4.77452 9.5276 6.63489H10.3697ZM10.3697 13.1614H11.2118V6.63489H10.3697H9.5276V13.1614H10.3697ZM8.26447 17.793H9.10659C9.10659 16.4737 9.68342 15.2901 10.6014 14.4788L10.0438 13.8478L9.48609 13.2168C8.22169 14.3342 7.42234 15.9708 7.42234 17.793H8.26447ZM13.5277 23.0563V22.2142C11.086 22.2142 9.10659 20.2347 9.10659 17.793H8.26447H7.42234C7.42234 21.1649 10.1558 23.8984 13.5277 23.8984V23.0563ZM18.791 17.793H17.9489C17.9489 20.2347 15.9695 22.2142 13.5277 22.2142V23.0563V23.8984C16.8996 23.8984 19.6331 21.1649 19.6331 17.793H18.791ZM17.0116 13.8477L16.454 14.4788C17.372 15.2901 17.9489 16.4736 17.9489 17.793H18.791H19.6331C19.6331 15.9708 18.8337 14.3342 17.5693 13.2167L17.0116 13.8477ZM16.6856 6.63489H15.8435V13.1613H16.6856H17.5278V6.63489H16.6856ZM14.1593 4.10852V4.95064C15.0895 4.95064 15.8435 5.70471 15.8435 6.63489H16.6856H17.5278C17.5278 4.77452 16.0196 3.2664 14.1593 3.2664V4.10852ZM12.8961 4.10852V4.95064H14.1593V4.10852V3.2664H12.8961V4.10852ZM17.0116 13.8477L17.5693 13.2167C17.5487 13.1985 17.537 13.1811 17.5315 13.1698C17.5265 13.1595 17.5278 13.157 17.5278 13.1613H16.6856H15.8435C15.8435 13.7022 16.1023 14.168 16.454 14.4788L17.0116 13.8477ZM10.3697 13.1614H9.5276C9.5276 13.1571 9.52884 13.1596 9.52381 13.1699C9.51833 13.1812 9.50669 13.1986 9.48609 13.2168L10.0438 13.8478L10.6014 14.4788C10.9531 14.1681 11.2118 13.7022 11.2118 13.1614H10.3697Z" fill="#E7ECEF"/>
<circle cx="13.5277" cy="17.793" r="2.31584" stroke="#E7ECEF" stroke-width="1.68424"/>
</svg>
